<?xml version="1.0" encoding="UTF-8"?>
<svg width="55px" height="17px" viewBox="0 0 55 17" version="1.1" xmlns="http://www.w3.org/2000/svg" xmlns:xlink="http://www.w3.org/1999/xlink">
    <!-- Generator: Sketch 53.2 (72643) - https://sketchapp.com -->
    <title>fish-01</title>
    <desc>Created with Sketch.</desc>
    <g id="fish-01-outer" stroke="none" stroke-width="1" fill="none" fill-rule="evenodd">
        <g id="fish-01-inner" transform="translate(-268.000000, -95.000000)" fill="#000000" fill-rule="nonzero">
            <path d="M269,96 L269.519,95.1452 L268.136,96.5034 L269,96 Z M321,103.125 L321.489,103.997 L322.731,103.301 L321.654,102.369 L321,103.125 Z M269,111 L268.109,110.546 L269.574,111.819 L269,111 Z M298.824,109.125 L298.824,108.125 L298.819,108.125 L298.824,109.125 Z M298.824,97.5 L298.798,98.4997 L298.811,98.5 L298.824,98.5 L298.824,97.5 Z M282.867,105.951 L282.506,106.884 L282.506,106.884 L282.867,105.951 Z M289.552,98.5396 L289.345,97.5613 L289.552,98.5396 Z M289.552,107.96 L289.335,108.936 L289.552,107.96 Z M309.718,98.5396 L309.92,97.5604 L309.718,98.5396 Z M316.159,100.46 L316.536,99.5338 L316.536,99.5338 L316.159,100.46 Z M269,96 C268.481,96.8548 268.481,96.8548 268.481,96.8547 C268.481,96.8548 268.481,96.8548 268.481,96.8548 C268.481,96.8549 268.481,96.855 268.482,96.8553 C268.483,96.8557 268.484,96.8565 268.485,96.8575 C268.489,96.8596 268.494,96.8628 268.501,96.8671 C268.515,96.8758 268.537,96.889 268.565,96.9065 C268.622,96.9415 268.706,96.9936 268.814,97.061 C269.029,97.1959 269.337,97.3917 269.707,97.6338 C270.449,98.1191 271.435,98.7864 272.416,99.5198 C273.404,100.258 274.359,101.042 275.058,101.76 C275.408,102.12 275.67,102.439 275.838,102.706 C275.921,102.838 275.972,102.942 276.001,103.021 C276.03,103.099 276.029,103.131 276.029,103.125 L278.029,103.125 C278.029,102.567 277.79,102.052 277.531,101.64 C277.26,101.21 276.894,100.779 276.491,100.365 C275.685,99.5364 274.633,98.6797 273.613,97.9177 C272.587,97.1511 271.565,96.4591 270.802,95.9599 C270.419,95.7099 270.1,95.5072 269.876,95.3667 C269.764,95.2964 269.676,95.2416 269.615,95.2041 C269.585,95.1853 269.561,95.1709 269.545,95.161 C269.537,95.156 269.531,95.1522 269.526,95.1496 C269.524,95.1483 269.522,95.1473 269.521,95.1465 C269.521,95.1462 269.52,95.1459 269.52,95.1456 C269.52,95.1455 269.519,95.1454 269.519,95.1454 C269.519,95.1453 269.519,95.1452 269,96 Z M276.029,103.125 C276.029,103.12 276.03,103.158 275.997,103.248 C275.966,103.336 275.911,103.453 275.825,103.598 C275.651,103.891 275.382,104.242 275.029,104.639 C274.323,105.43 273.361,106.309 272.371,107.141 C271.387,107.968 270.399,108.729 269.656,109.285 C269.285,109.562 268.976,109.787 268.76,109.943 C268.653,110.02 268.568,110.08 268.511,110.121 C268.483,110.141 268.461,110.156 268.447,110.167 C268.44,110.172 268.434,110.175 268.431,110.178 C268.429,110.179 268.428,110.18 268.427,110.18 C268.427,110.181 268.426,110.181 268.426,110.181 C268.426,110.181 268.426,110.181 268.426,110.181 C268.426,110.181 268.426,110.181 269,111 C269.574,111.819 269.574,111.819 269.574,111.819 C269.574,111.819 269.574,111.819 269.574,111.819 C269.575,111.818 269.575,111.818 269.576,111.818 C269.577,111.817 269.579,111.816 269.581,111.814 C269.585,111.811 269.591,111.807 269.599,111.801 C269.615,111.79 269.639,111.773 269.669,111.752 C269.73,111.709 269.818,111.646 269.93,111.565 C270.153,111.404 270.472,111.172 270.853,110.887 C271.615,110.317 272.635,109.532 273.658,108.672 C274.676,107.816 275.722,106.867 276.521,105.97 C276.92,105.523 277.279,105.066 277.544,104.621 C277.796,104.197 278.029,103.675 278.029,103.125 L276.029,103.125 Z M269,111 C269.891,111.454 269.891,111.454 269.891,111.454 C269.891,111.454 269.891,111.454 269.891,111.454 C269.891,111.453 269.891,111.453 269.892,111.453 C269.892,111.452 269.893,111.451 269.894,111.449 C269.895,111.446 269.898,111.441 269.901,111.435 C269.907,111.423 269.916,111.405 269.927,111.383 C269.95,111.337 269.984,111.27 270.026,111.185 C270.111,111.014 270.233,110.769 270.378,110.469 C270.668,109.87 271.056,109.05 271.444,108.169 C271.832,107.29 272.226,106.337 272.526,105.474 C272.81,104.654 273.059,103.782 273.059,103.125 L271.059,103.125 C271.059,103.406 270.925,103.987 270.636,104.819 C270.362,105.608 269.992,106.507 269.614,107.362 C269.238,108.215 268.861,109.012 268.578,109.597 C268.437,109.889 268.319,110.127 268.237,110.292 C268.195,110.375 268.163,110.439 268.142,110.482 C268.131,110.503 268.122,110.52 268.117,110.53 C268.114,110.536 268.112,110.54 268.111,110.542 C268.11,110.544 268.11,110.545 268.109,110.545 C268.109,110.545 268.109,110.546 268.109,110.546 C268.109,110.546 268.109,110.546 268.109,110.546 C268.109,110.546 268.109,110.546 269,111 Z M273.059,103.125 C273.059,102.457 272.804,101.626 272.516,100.866 C272.213,100.068 271.815,99.2036 271.426,98.4162 C271.035,97.6259 270.646,96.8976 270.354,96.3678 C270.208,96.1024 270.087,95.886 270.001,95.7353 C269.958,95.6599 269.924,95.6009 269.901,95.5604 C269.889,95.5402 269.88,95.5246 269.874,95.5139 C269.871,95.5085 269.869,95.5043 269.867,95.5015 C269.866,95.5 269.865,95.4989 269.865,95.4981 C269.865,95.4977 269.864,95.4973 269.864,95.4971 C269.864,95.497 269.864,95.4968 269.864,95.4968 C269.864,95.4967 269.864,95.4966 269,96 C268.136,96.5034 268.136,96.5034 268.136,96.5033 C268.136,96.5034 268.136,96.5034 268.136,96.5034 C268.136,96.5035 268.136,96.5036 268.136,96.5038 C268.136,96.5043 268.137,96.5051 268.138,96.5062 C268.139,96.5083 268.141,96.5118 268.143,96.5164 C268.149,96.5256 268.157,96.5397 268.168,96.5584 C268.189,96.5957 268.221,96.6514 268.262,96.7232 C268.344,96.867 268.461,97.0753 268.602,97.3315 C268.884,97.8446 269.259,98.546 269.633,99.3025 C270.008,100.062 270.375,100.862 270.646,101.575 C270.931,102.327 271.059,102.856 271.059,103.125 L273.059,103.125 Z M282.52,99.5218 C280.564,100.244 278.547,101.14 276.544,102.25 L277.514,104 C279.418,102.944 281.341,102.089 283.213,101.398 L282.52,99.5218 Z M276.516,103.983 C278.492,105.164 280.519,106.116 282.506,106.884 L283.227,105.019 C281.331,104.285 279.407,103.381 277.542,102.267 L276.516,103.983 Z M281.867,100.46 L281.867,105.951 L283.867,105.951 L283.867,100.46 L281.867,100.46 Z M289.345,97.5613 C287.249,98.0046 284.929,98.6325 282.52,99.5218 L283.213,101.398 C285.518,100.547 287.744,99.9443 289.759,99.518 L289.345,97.5613 Z M282.506,106.884 C284.89,107.806 287.22,108.465 289.335,108.936 L289.77,106.983 C287.735,106.53 285.503,105.899 283.227,105.019 L282.506,106.884 Z M288.552,98.5396 L288.552,107.96 L290.552,107.96 L290.552,98.5396 L288.552,98.5396 Z M298.824,97.5 C298.849,96.5003 298.849,96.5003 298.849,96.5003 C298.849,96.5003 298.848,96.5003 298.848,96.5003 C298.848,96.5003 298.848,96.5003 298.848,96.5003 C298.847,96.5003 298.847,96.5003 298.846,96.5003 C298.845,96.5002 298.844,96.5002 298.842,96.5002 C298.839,96.5001 298.834,96.5 298.828,96.4999 C298.817,96.4996 298.8,96.4994 298.779,96.4991 C298.736,96.4985 298.675,96.4979 298.596,96.4979 C298.437,96.4977 298.207,96.4995 297.911,96.5071 C297.319,96.5223 296.466,96.5608 295.408,96.6534 L295.582,98.6458 C296.596,98.5571 297.408,98.5207 297.962,98.5065 C298.239,98.4993 298.452,98.4977 298.594,98.4979 C298.665,98.4979 298.718,98.4984 298.752,98.4989 C298.769,98.4991 298.782,98.4993 298.79,98.4995 C298.793,98.4996 298.796,98.4996 298.798,98.4997 C298.798,98.4997 298.799,98.4997 298.799,98.4997 C298.799,98.4997 298.799,98.4997 298.799,98.4997 C298.799,98.4997 298.799,98.4997 298.799,98.4997 C298.799,98.4997 298.798,98.4997 298.798,98.4997 C298.798,98.4997 298.798,98.4997 298.824,97.5 Z M295.408,96.6534 C293.8,96.7942 291.714,97.0603 289.345,97.5613 L289.759,99.518 C292.037,99.0363 294.042,98.7807 295.582,98.6458 L295.408,96.6534 Z M289.335,108.936 C291.687,109.459 293.779,109.752 295.394,109.916 L295.596,107.926 C294.045,107.769 292.032,107.487 289.77,106.983 L289.335,108.936 Z M295.394,109.916 C296.446,110.023 297.298,110.075 297.889,110.101 C298.185,110.113 298.416,110.12 298.575,110.122 C298.654,110.124 298.716,110.125 298.758,110.125 C298.78,110.125 298.796,110.125 298.808,110.125 C298.813,110.125 298.818,110.125 298.821,110.125 C298.823,110.125 298.824,110.125 298.826,110.125 C298.826,110.125 298.826,110.125 298.827,110.125 C298.827,110.125 298.827,110.125 298.827,110.125 C298.827,110.125 298.828,110.125 298.828,110.125 C298.828,110.125 298.828,110.125 298.824,109.125 C298.819,108.125 298.819,108.125 298.819,108.125 C298.819,108.125 298.82,108.125 298.82,108.125 C298.82,108.125 298.82,108.125 298.82,108.125 C298.82,108.125 298.82,108.125 298.82,108.125 C298.82,108.125 298.819,108.125 298.818,108.125 C298.817,108.125 298.814,108.125 298.81,108.125 C298.802,108.125 298.789,108.125 298.772,108.125 C298.737,108.125 298.683,108.124 298.612,108.123 C298.469,108.12 298.254,108.115 297.975,108.102 C297.418,108.078 296.606,108.029 295.596,107.926 L295.394,109.916 Z M294.495,97.6496 L294.495,108.921 L296.495,108.921 L296.495,97.6496 L294.495,97.6496 Z M303.215,96.6521 C301.836,96.5542 300.373,96.5 298.824,96.5 L298.824,98.5 C300.327,98.5 301.743,98.5525 303.074,98.6471 L303.215,96.6521 Z M298.824,110.125 C300.327,110.125 301.814,110.025 303.263,109.851 L303.025,107.865 C301.646,108.031 300.239,108.125 298.824,108.125 L298.824,110.125 Z M302.144,97.6496 L302.144,108.858 L304.144,108.858 L304.144,97.6496 L302.144,97.6496 Z M303.263,109.851 C305.682,109.561 308.001,109.065 310.122,108.483 L309.592,106.554 C307.549,107.115 305.329,107.589 303.025,107.865 L303.263,109.851 Z M309.92,97.5604 C307.955,97.1541 305.725,96.8305 303.215,96.6521 L303.074,98.6471 C305.496,98.8193 307.638,99.1308 309.516,99.5189 L309.92,97.5604 Z M310.857,107.503 L310.718,98.5242 L308.718,98.5551 L308.857,107.534 L310.857,107.503 Z M321,103.125 C321.654,102.369 321.654,102.369 321.654,102.368 C321.654,102.368 321.654,102.368 321.653,102.368 C321.653,102.368 321.653,102.367 321.652,102.367 C321.652,102.366 321.651,102.366 321.65,102.365 C321.648,102.363 321.646,102.361 321.643,102.359 C321.638,102.355 321.631,102.349 321.623,102.342 C321.606,102.328 321.583,102.31 321.555,102.286 C321.497,102.24 321.415,102.176 321.308,102.096 C321.093,101.937 320.778,101.716 320.358,101.453 C319.517,100.927 318.256,100.234 316.536,99.5338 L315.782,101.386 C317.39,102.041 318.549,102.681 319.297,103.149 C319.671,103.382 319.942,103.573 320.115,103.702 C320.202,103.766 320.264,103.815 320.302,103.846 C320.321,103.861 320.334,103.872 320.342,103.878 C320.345,103.881 320.347,103.883 320.348,103.883 C320.348,103.884 320.348,103.884 320.348,103.883 C320.348,103.883 320.347,103.883 320.347,103.882 C320.347,103.882 320.347,103.882 320.346,103.882 C320.346,103.882 320.346,103.882 320.346,103.882 C320.346,103.881 320.346,103.881 321,103.125 Z M316.536,99.5338 C314.806,98.8288 312.613,98.1171 309.92,97.5604 L309.516,99.5189 C312.087,100.051 314.163,100.727 315.782,101.386 L316.536,99.5338 Z M310.122,108.483 C312.563,107.813 314.75,107.026 316.535,106.302 L315.783,104.449 C314.056,105.15 311.944,105.909 309.592,106.554 L310.122,108.483 Z M316.535,106.302 C318.055,105.686 319.287,105.113 320.141,104.693 C320.569,104.483 320.902,104.311 321.131,104.191 C321.245,104.13 321.333,104.083 321.393,104.05 C321.423,104.034 321.446,104.021 321.462,104.012 C321.47,104.008 321.476,104.004 321.481,104.002 C321.483,104.001 321.485,104 321.486,103.999 C321.487,103.998 321.487,103.998 321.488,103.998 C321.488,103.998 321.488,103.998 321.488,103.998 C321.489,103.998 321.489,103.997 321.489,103.997 C321.489,103.997 321.489,103.997 321,103.125 C320.511,102.253 320.511,102.253 320.511,102.253 C320.511,102.253 320.511,102.253 320.511,102.253 C320.511,102.252 320.511,102.252 320.511,102.252 C320.511,102.252 320.511,102.253 320.511,102.253 C320.511,102.253 320.51,102.253 320.508,102.254 C320.506,102.256 320.501,102.258 320.495,102.262 C320.482,102.269 320.463,102.279 320.436,102.294 C320.384,102.322 320.303,102.366 320.197,102.422 C319.985,102.534 319.669,102.697 319.259,102.898 C318.441,103.3 317.252,103.853 315.783,104.449 L316.535,106.302 Z M315.159,100.46 L315.159,105.375 L317.159,105.375 L317.159,100.46 L315.159,100.46 Z" id="Shape"></path>
        </g>
    </g>
</svg>
