<?xml version="1.0" encoding="UTF-8"?>
<svg width="108px" height="33px" viewBox="0 0 108 33" version="1.1" xmlns="http://www.w3.org/2000/svg" xmlns:xlink="http://www.w3.org/1999/xlink">
    <!-- Generator: Sketch 53.2 (72643) - https://sketchapp.com -->
    <title>fish-02</title>
    <desc>Created with Sketch.</desc>
    <g id="fish-02-outer" stroke="none" stroke-width="1" fill="none" fill-rule="evenodd">
        <g id="fish-02-inner" transform="translate(-459.000000, -9.000000)" fill="#000000" fill-rule="nonzero">
            <path d="M460,10 L460.528,9.15063 L459.131,10.4947 L460,10 Z M565,24.725 L565.498,25.5924 L566.705,24.8996 L565.663,23.9764 L565,24.725 Z M460,41 L459.105,40.5541 L460.583,41.8127 L460,41 Z M520.221,37.125 L520.221,36.125 L520.216,36.125 L520.221,37.125 Z M520.221,13.1 L520.195,14.0997 L520.208,14.1 L520.221,14.1 L520.221,13.1 Z M488,30.5661 L487.632,31.4959 L488,30.5661 Z M501.5,15.2486 L501.288,14.2712 L501.5,15.2486 Z M528.945,13.4092 L529.018,12.4118 L528.945,13.4092 Z M555.225,19.2171 L555.61,18.2941 L555.225,19.2171 Z M460,10 C459.472,10.8494 459.472,10.8494 459.472,10.8494 C459.472,10.8494 459.472,10.8495 459.473,10.8496 C459.473,10.8498 459.474,10.8502 459.474,10.8508 C459.476,10.8519 459.479,10.8535 459.483,10.8558 C459.49,10.8604 459.501,10.8673 459.516,10.8766 C459.546,10.8952 459.59,10.9232 459.648,10.96 C459.765,11.0336 459.937,11.1427 460.156,11.2835 C460.595,11.5652 461.223,11.9734 461.977,12.4779 C463.486,13.488 465.495,14.88 467.499,16.4131 C469.51,17.9507 471.488,19.6091 472.955,21.1516 C473.689,21.9236 474.272,22.6422 474.665,23.2813 C475.069,23.9375 475.213,24.4141 475.213,24.725 L477.213,24.725 C477.213,23.8734 476.851,23.018 476.368,22.2332 C475.875,21.4312 475.191,20.5999 474.405,19.7734 C472.831,18.1191 470.757,16.3868 468.714,14.8244 C466.665,13.2575 464.62,11.8401 463.089,10.8158 C462.323,10.3032 461.685,9.88795 461.237,9.60044 C461.013,9.45667 460.837,9.34478 460.716,9.26856 C460.655,9.23045 460.609,9.20125 460.577,9.18144 C460.561,9.17153 460.549,9.16397 460.541,9.15882 C460.537,9.15624 460.534,9.15427 460.531,9.1529 C460.53,9.15222 460.529,9.15169 460.529,9.15131 C460.529,9.15112 460.528,9.15095 460.528,9.15085 C460.528,9.15072 460.528,9.15063 460,10 Z M475.213,24.725 C475.213,25.0434 475.063,25.5488 474.652,26.2569 C474.253,26.9441 473.664,27.7263 472.926,28.5726 C471.452,30.2635 469.467,32.1166 467.454,33.8482 C465.447,35.5754 463.436,37.1613 461.926,38.3166 C461.171,38.8939 460.542,39.3626 460.103,39.6866 C459.883,39.8486 459.711,39.9743 459.594,40.0593 C459.536,40.1018 459.491,40.1341 459.461,40.1556 C459.446,40.1664 459.435,40.1744 459.428,40.1797 C459.424,40.1824 459.421,40.1844 459.42,40.1856 C459.419,40.1863 459.418,40.1867 459.418,40.187 C459.418,40.1871 459.417,40.1872 459.417,40.1873 C459.417,40.1873 459.417,40.1873 460,41 C460.583,41.8127 460.583,41.8126 460.583,41.8124 C460.583,41.8123 460.583,41.8122 460.584,41.8119 C460.584,41.8115 460.585,41.8109 460.586,41.8101 C460.588,41.8086 460.592,41.8063 460.596,41.8034 C460.604,41.7975 460.616,41.7888 460.632,41.7774 C460.663,41.7547 460.71,41.7211 460.77,41.6773 C460.89,41.5897 461.067,41.4612 461.29,41.2962 C461.738,40.9663 462.376,40.4905 463.141,39.9053 C464.67,38.7356 466.713,37.1246 468.759,35.3643 C470.8,33.6084 472.868,31.6834 474.434,29.8868 C475.216,28.9893 475.894,28.1004 476.381,27.2618 C476.856,26.4441 477.213,25.5691 477.213,24.725 L475.213,24.725 Z M460,41 C460.895,41.4459 460.895,41.4458 460.895,41.4456 C460.895,41.4455 460.895,41.4453 460.895,41.4451 C460.896,41.4446 460.896,41.444 460.896,41.4432 C460.897,41.4415 460.898,41.4391 460.9,41.436 C460.903,41.4297 460.908,41.4205 460.914,41.4084 C460.926,41.3842 460.943,41.3485 460.966,41.302 C461.012,41.2089 461.079,41.0724 461.164,40.8976 C461.335,40.5481 461.578,40.0452 461.869,39.4299 C462.451,38.1999 463.229,36.5175 464.007,34.7113 C464.784,32.9077 465.567,30.9671 466.158,29.2239 C466.736,27.5217 467.176,25.8775 467.176,24.725 L465.176,24.725 C465.176,25.51 464.845,26.8689 464.264,28.5816 C463.697,30.2532 462.937,32.1392 462.17,33.92 C461.404,35.6981 460.637,37.3579 460.061,38.574 C459.774,39.1818 459.534,39.6779 459.366,40.0216 C459.283,40.1935 459.217,40.3272 459.172,40.4176 C459.15,40.4629 459.133,40.4973 459.122,40.5203 C459.116,40.5317 459.112,40.5404 459.109,40.546 C459.108,40.5489 459.106,40.551 459.106,40.5523 C459.105,40.553 459.105,40.5535 459.105,40.5538 C459.105,40.554 459.105,40.554 459.105,40.5541 C459.105,40.5542 459.105,40.5541 460,41 Z M467.176,24.725 C467.176,23.5611 466.73,22.0085 466.149,20.4419 C465.555,18.838 464.767,17.0867 463.989,15.4744 C463.209,13.8593 462.429,12.3686 461.846,11.2826 C461.554,10.7392 461.311,10.2962 461.14,9.98844 C461.054,9.83456 460.987,9.71446 460.941,9.63249 C460.918,9.59151 460.9,9.56005 460.888,9.53867 C460.882,9.52798 460.877,9.51981 460.874,9.51422 C460.873,9.51142 460.871,9.50928 460.87,9.50779 C460.87,9.50704 460.87,9.50646 460.869,9.50604 C460.869,9.50583 460.869,9.50564 460.869,9.50554 C460.869,9.50539 460.869,9.50528 460,10 C459.131,10.4947 459.131,10.4947 459.131,10.4947 C459.131,10.4948 459.131,10.4948 459.131,10.495 C459.131,10.4952 459.131,10.4956 459.132,10.4962 C459.132,10.4973 459.133,10.4991 459.135,10.5015 C459.138,10.5064 459.142,10.5139 459.147,10.5238 C459.159,10.5437 459.176,10.5737 459.198,10.6131 C459.242,10.692 459.308,10.8087 459.391,10.9591 C459.558,11.2599 459.797,11.6948 460.084,12.2292 C460.659,13.2986 461.424,14.7626 462.188,16.3443 C462.953,17.9289 463.71,19.6167 464.274,21.137 C464.851,22.6946 465.176,23.9514 465.176,24.725 L467.176,24.725 Z M487.647,18.2816 C483.738,19.7587 479.713,21.5885 475.72,23.8553 L476.707,25.5947 C480.601,23.3843 484.531,21.5972 488.353,20.1525 L487.647,18.2816 Z M475.691,25.578 C479.624,27.9837 483.666,29.9265 487.632,31.4959 L488.368,29.6362 C484.494,28.1031 480.557,26.2098 476.735,23.872 L475.691,25.578 Z M487,19.2171 L487,30.5661 L489,30.5661 L489,19.2171 L487,19.2171 Z M501.288,14.2712 C497.096,15.1787 492.458,16.4634 487.647,18.2816 L488.353,20.1525 C493.06,18.374 497.602,17.1156 501.712,16.226 L501.288,14.2712 Z M487.632,31.4959 C492.392,33.3796 497.047,34.7271 501.278,35.6914 L501.722,33.7414 C497.574,32.7959 493.018,31.4765 488.368,29.6362 L487.632,31.4959 Z M500.5,15.2486 L500.5,34.7164 L502.5,34.7164 L502.5,15.2486 L500.5,15.2486 Z M520.221,13.1 C520.246,12.1003 520.246,12.1003 520.246,12.1003 C520.246,12.1003 520.246,12.1003 520.246,12.1003 C520.246,12.1003 520.246,12.1003 520.245,12.1003 C520.245,12.1003 520.244,12.1003 520.243,12.1003 C520.241,12.1002 520.239,12.1002 520.236,12.1001 C520.23,12.0999 520.222,12.0998 520.211,12.0996 C520.189,12.0991 520.158,12.0986 520.117,12.098 C520.035,12.0969 519.916,12.0958 519.76,12.0956 C519.448,12.0953 518.991,12.0989 518.403,12.1144 C517.227,12.1453 515.526,12.2237 513.411,12.4132 L513.589,14.4052 C515.658,14.2199 517.317,14.1436 518.456,14.1137 C519.025,14.0987 519.463,14.0953 519.758,14.0956 C519.905,14.0957 520.016,14.0968 520.09,14.0978 C520.126,14.0983 520.154,14.0988 520.171,14.0992 C520.18,14.0993 520.186,14.0995 520.19,14.0996 C520.192,14.0996 520.194,14.0996 520.194,14.0997 C520.195,14.0997 520.195,14.0997 520.195,14.0997 C520.195,14.0997 520.195,14.0997 520.195,14.0997 C520.195,14.0997 520.195,14.0997 520.195,14.0997 C520.195,14.0997 520.195,14.0997 520.221,13.1 Z M513.411,12.4132 C510.197,12.7011 506.026,13.2457 501.288,14.2712 L501.712,16.226 C506.356,15.2206 510.445,14.687 513.589,14.4052 L513.411,12.4132 Z M501.278,35.6914 C505.981,36.7635 510.166,37.3631 513.397,37.6986 L513.603,35.7093 C510.438,35.3806 506.334,34.7926 501.722,33.7414 L501.278,35.6914 Z M513.397,37.6986 C515.499,37.9169 517.199,38.0235 518.377,38.0756 C518.966,38.1016 519.424,38.114 519.737,38.1198 C519.894,38.1227 520.014,38.124 520.096,38.1246 C520.137,38.1249 520.168,38.125 520.19,38.125 C520.2,38.125 520.209,38.125 520.215,38.125 C520.218,38.125 520.22,38.125 520.222,38.125 C520.223,38.125 520.223,38.125 520.224,38.125 C520.224,38.125 520.224,38.125 520.224,38.125 C520.225,38.125 520.225,38.125 520.225,38.125 C520.225,38.125 520.225,38.125 520.221,37.125 C520.216,36.125 520.216,36.125 520.216,36.125 C520.216,36.125 520.216,36.125 520.216,36.125 C520.216,36.125 520.216,36.125 520.216,36.125 C520.216,36.125 520.216,36.125 520.216,36.125 C520.215,36.125 520.214,36.125 520.212,36.125 C520.207,36.125 520.201,36.125 520.192,36.125 C520.174,36.125 520.147,36.1249 520.109,36.1247 C520.035,36.1241 519.923,36.1229 519.775,36.1202 C519.478,36.1146 519.036,36.1027 518.465,36.0775 C517.323,36.0271 515.663,35.9231 513.603,35.7093 L513.397,37.6986 Z M512.5,13.4092 L512.5,36.7039 L514.5,36.7039 L514.5,13.4092 L512.5,13.4092 Z M529.018,12.4118 C526.258,12.2111 523.327,12.1 520.221,12.1 L520.221,14.1 C523.279,14.1 526.161,14.2094 528.873,14.4066 L529.018,12.4118 Z M520.221,38.125 C523.213,38.125 526.176,37.9212 529.067,37.5664 L528.824,35.5813 C526.004,35.9273 523.123,36.125 520.221,36.125 L520.221,38.125 Z M527.945,13.4092 L527.945,36.5738 L529.945,36.5738 L529.945,13.4092 L527.945,13.4092 Z M529.067,37.5664 C533.894,36.9742 538.526,35.9606 542.77,34.7681 L542.23,32.8426 C538.064,34.013 533.532,35.0036 528.824,35.5813 L529.067,37.5664 Z M542.426,14.2703 C538.502,13.4399 534.043,12.7773 529.018,12.4118 L528.873,14.4066 C533.808,14.7655 538.178,15.4155 542.012,16.2269 L542.426,14.2703 Z M543.5,33.7902 L543.219,15.2335 L541.219,15.2637 L541.5,33.8205 L543.5,33.7902 Z M565,24.725 C565.663,23.9764 565.663,23.9762 565.663,23.976 C565.662,23.9759 565.662,23.9757 565.662,23.9755 C565.662,23.9752 565.661,23.9748 565.661,23.9744 C565.66,23.9736 565.659,23.9726 565.657,23.9714 C565.655,23.9691 565.651,23.9662 565.647,23.9626 C565.639,23.9554 565.628,23.9456 565.613,23.9334 C565.585,23.9089 565.544,23.8745 565.491,23.8307 C565.384,23.7433 565.229,23.6188 565.023,23.4621 C564.61,23.1489 563.997,22.7077 563.171,22.1793 C561.521,21.1226 559.026,19.7181 555.61,18.2941 L554.84,20.1401 C558.144,21.5173 560.536,22.8668 562.093,23.8637 C562.872,24.3622 563.442,24.7726 563.812,25.0545 C563.998,25.1954 564.134,25.3042 564.221,25.3757 C564.264,25.4115 564.295,25.4379 564.315,25.4545 C564.324,25.4627 564.331,25.4685 564.335,25.4717 C564.337,25.4733 564.338,25.4743 564.338,25.4746 C564.338,25.4748 564.338,25.4748 564.338,25.4746 C564.338,25.4745 564.338,25.4744 564.338,25.4742 C564.338,25.4741 564.337,25.474 564.337,25.4739 C564.337,25.4738 564.337,25.4736 565,24.725 Z M555.61,18.2941 C552.172,16.8606 547.803,15.4081 542.426,14.2703 L542.012,16.2269 C547.265,17.3387 551.515,18.7538 554.84,20.1401 L555.61,18.2941 Z M542.77,34.7681 C547.655,33.3957 552.032,31.7844 555.609,30.2995 L554.842,28.4524 C551.324,29.9128 547.023,31.4958 542.23,32.8426 L542.77,34.7681 Z M555.609,30.2995 C558.652,29.0361 561.117,27.8629 562.825,27.0042 C563.679,26.5748 564.344,26.2238 564.797,25.9792 C565.023,25.8569 565.197,25.7612 565.314,25.6956 C565.373,25.6628 565.418,25.6375 565.449,25.6202 C565.464,25.6115 565.476,25.6048 565.484,25.6002 C565.488,25.5978 565.491,25.596 565.494,25.5947 C565.495,25.5941 565.496,25.5936 565.496,25.5932 C565.497,25.593 565.497,25.5928 565.497,25.5927 C565.497,25.5926 565.497,25.5926 565.497,25.5925 C565.497,25.5925 565.498,25.5924 565,24.725 C564.502,23.8576 564.503,23.8575 564.503,23.8575 C564.503,23.8575 564.503,23.8575 564.503,23.8575 C564.503,23.8575 564.503,23.8575 564.502,23.8576 C564.502,23.8577 564.502,23.858 564.501,23.8584 C564.5,23.8592 564.497,23.8605 564.494,23.8623 C564.488,23.8659 564.478,23.8716 564.464,23.8793 C564.437,23.8946 564.396,23.9178 564.341,23.9485 C564.23,24.01 564.065,24.1015 563.846,24.2194 C563.409,24.4554 562.762,24.7973 561.926,25.2174 C560.255,26.0577 557.834,27.2101 554.842,28.4524 L555.609,30.2995 Z M554.225,19.2171 L554.225,29.376 L556.225,29.376 L556.225,19.2171 L554.225,19.2171 Z" id="Shape"></path>
        </g>
    </g>
</svg>
