<?xml version="1.0" encoding="UTF-8"?>
<svg width="71px" height="22px" viewBox="0 0 71 22" version="1.1" xmlns="http://www.w3.org/2000/svg" xmlns:xlink="http://www.w3.org/1999/xlink">
    <!-- Generator: Sketch 53.2 (72643) - https://sketchapp.com -->
    <title>fish-03</title>
    <desc>Created with Sketch.</desc>
    <g id="fish-03-outer" stroke="none" stroke-width="1" fill="none" fill-rule="evenodd">
        <g id="fish-03-inner" transform="translate(-208.000000, -54.000000)" fill="#000000" fill-rule="nonzero">
            <path d="M209,55 L209.526,54.1497 L208.132,55.4961 L209,55 Z M277,64.5 L277.496,65.3682 L278.71,64.6748 L277.662,63.7502 L277,64.5 Z M209,75 L208.106,74.5528 L209.581,75.8137 L209,75 Z M248,72.5 L248,71.5 L247.996,71.5 L248,72.5 Z M248,57 L247.974,57.9997 L247.987,58 L248,58 L248,57 Z M209,55 C208.474,55.8503 208.474,55.8502 208.474,55.8502 C208.474,55.8503 208.474,55.8503 208.474,55.8503 C208.474,55.8505 208.474,55.8507 208.475,55.851 C208.476,55.8517 208.478,55.8527 208.48,55.8541 C208.484,55.857 208.491,55.8614 208.501,55.8672 C208.52,55.879 208.548,55.8968 208.586,55.9204 C208.661,55.9674 208.771,56.0373 208.912,56.1276 C209.195,56.3083 209.6,56.5704 210.086,56.8946 C211.06,57.5437 212.354,58.4373 213.644,59.4204 C214.94,60.4081 216.205,61.465 217.136,62.4405 C217.602,62.9289 217.961,63.3726 218.198,63.756 C218.445,64.1566 218.5,64.3964 218.5,64.5 L220.5,64.5 C220.5,63.8536 220.226,63.234 219.9,62.705 C219.562,62.1587 219.101,61.6023 218.583,61.0595 C217.545,59.9725 216.185,58.8419 214.856,57.8296 C213.521,56.8127 212.19,55.8938 211.195,55.2304 C210.697,54.8983 210.282,54.6292 209.99,54.4427 C209.844,54.3494 209.729,54.2767 209.65,54.2271 C209.611,54.2023 209.58,54.1832 209.559,54.1702 C209.549,54.1637 209.541,54.1587 209.535,54.1553 C209.533,54.1536 209.53,54.1523 209.529,54.1513 C209.528,54.1509 209.528,54.1505 209.527,54.1502 C209.527,54.1501 209.527,54.15 209.527,54.1499 C209.526,54.1498 209.526,54.1497 209,55 Z M218.5,64.5 C218.5,64.6112 218.44,64.8712 218.185,65.3086 C217.942,65.7251 217.577,66.2108 217.107,66.7477 C216.169,67.82 214.898,69.0028 213.599,70.1157 C212.306,71.2242 211.01,72.2429 210.035,72.9858 C209.548,73.3568 209.142,73.658 208.859,73.866 C208.718,73.97 208.607,74.0506 208.532,74.105 C208.494,74.1322 208.465,74.1528 208.446,74.1664 C208.437,74.1733 208.43,74.1784 208.425,74.1817 C208.423,74.1834 208.421,74.1846 208.42,74.1853 C208.42,74.1857 208.419,74.186 208.419,74.1861 C208.419,74.1862 208.419,74.1862 208.419,74.1863 C208.419,74.1863 208.419,74.1863 209,75 C209.581,75.8137 209.581,75.8137 209.582,75.8135 C209.582,75.8135 209.582,75.8133 209.582,75.8132 C209.582,75.8129 209.583,75.8125 209.584,75.8119 C209.585,75.8109 209.587,75.8094 209.59,75.8074 C209.596,75.8035 209.603,75.7978 209.614,75.7904 C209.635,75.7755 209.665,75.7536 209.704,75.7251 C209.783,75.6681 209.898,75.5847 210.043,75.4778 C210.334,75.2639 210.749,74.9557 211.247,74.5767 C212.24,73.8196 213.569,72.7758 214.901,71.6343 C216.227,70.4972 217.581,69.2425 218.612,68.0648 C219.127,67.4767 219.581,66.8843 219.913,66.3164 C220.232,65.7695 220.5,65.1388 220.5,64.5 L218.5,64.5 Z M209,75 C209.894,75.4472 209.894,75.4471 209.895,75.447 C209.895,75.4469 209.895,75.4468 209.895,75.4466 C209.895,75.4463 209.895,75.4459 209.895,75.4453 C209.896,75.4442 209.897,75.4426 209.898,75.4405 C209.9,75.4364 209.903,75.4303 209.907,75.4224 C209.915,75.4066 209.926,75.3833 209.941,75.3531 C209.971,75.2926 210.015,75.204 210.07,75.0907 C210.181,74.8642 210.339,74.5385 210.528,74.1402 C210.906,73.3442 211.412,72.2548 211.918,71.0844 C212.423,69.9167 212.934,68.655 213.322,67.5176 C213.695,66.4213 214,65.3094 214,64.5 L212,64.5 C212,64.9406 211.805,65.7662 211.428,66.873 C211.066,67.9388 210.577,69.1458 210.082,70.2906 C209.588,71.4327 209.094,72.4996 208.722,73.2817 C208.536,73.6724 208.382,73.9913 208.274,74.212 C208.22,74.3224 208.177,74.4081 208.149,74.466 C208.134,74.495 208.123,74.517 208.116,74.5316 C208.113,74.5389 208.11,74.5443 208.108,74.5479 C208.107,74.5496 208.106,74.5509 208.106,74.5518 C208.106,74.5522 208.106,74.5525 208.106,74.5526 C208.106,74.5527 208.106,74.5528 208.106,74.5528 C208.106,74.5528 208.106,74.5528 209,75 Z M214,64.5 C214,63.6791 213.689,62.6245 213.312,61.6122 C212.922,60.5625 212.407,59.4213 211.9,58.3762 C211.392,57.3282 210.885,56.3617 210.505,55.6581 C210.315,55.3059 210.157,55.0187 210.045,54.8189 C209.99,54.719 209.946,54.6409 209.916,54.5875 C209.901,54.5608 209.889,54.5402 209.881,54.5262 C209.877,54.5191 209.874,54.5137 209.872,54.51 C209.871,54.5081 209.87,54.5067 209.869,54.5057 C209.869,54.5052 209.869,54.5047 209.869,54.5044 C209.868,54.5043 209.868,54.5041 209.868,54.5041 C209.868,54.504 209.868,54.5039 209,55 C208.132,55.4961 208.132,55.4961 208.132,55.4961 C208.132,55.4961 208.132,55.4961 208.132,55.4962 C208.132,55.4963 208.132,55.4966 208.132,55.4969 C208.133,55.4976 208.133,55.4987 208.134,55.5002 C208.136,55.5032 208.138,55.5079 208.142,55.5141 C208.149,55.5267 208.16,55.5458 208.174,55.5709 C208.203,55.6213 208.245,55.696 208.298,55.7924 C208.406,55.9852 208.56,56.2644 208.745,56.6075 C209.115,57.2945 209.608,58.2343 210.1,59.2488 C210.593,60.2662 211.078,61.3438 211.438,62.3097 C211.811,63.313 212,64.0709 212,64.5 L214,64.5 Z M218.98,65.3539 C225.738,69.4724 232.992,71.5039 238.535,72.5088 C241.311,73.012 243.668,73.2597 245.335,73.3816 C246.169,73.4426 246.831,73.4722 247.287,73.4866 C247.515,73.4938 247.691,73.4971 247.812,73.4987 C247.873,73.4995 247.92,73.4998 247.952,73.4999 C247.968,73.5 247.98,73.5 247.989,73.5 C247.993,73.5 247.997,73.5 247.999,73.5 C248.001,73.5 248.002,73.5 248.003,73.5 C248.003,73.5 248.003,73.5 248.004,73.5 C248.004,73.5 248.004,73.5 248,72.5 C247.996,71.5 247.996,71.5 247.996,71.5 C247.996,71.5 247.996,71.5 247.996,71.5 C247.996,71.5 247.996,71.5 247.995,71.5 C247.994,71.5 247.992,71.5 247.989,71.5 C247.983,71.5 247.973,71.5 247.96,71.5 C247.934,71.4998 247.893,71.4996 247.838,71.4989 C247.729,71.4974 247.565,71.4944 247.35,71.4876 C246.919,71.474 246.285,71.4458 245.481,71.387 C243.873,71.2693 241.587,71.0294 238.892,70.5409 C233.494,69.5623 226.498,67.5938 220.02,63.6461 L218.98,65.3539 Z M248,73.5 C255.665,73.5 263.04,71.4591 268.474,69.4372 C271.196,68.4242 273.444,67.411 275.014,66.6498 C275.8,66.2691 276.416,65.951 276.838,65.727 C277.049,65.615 277.211,65.5265 277.322,65.4654 C277.378,65.4349 277.42,65.4112 277.449,65.3948 C277.464,65.3866 277.475,65.3803 277.483,65.3758 C277.487,65.3736 277.49,65.3719 277.492,65.3706 C277.493,65.37 277.494,65.3694 277.495,65.3691 C277.495,65.3689 277.495,65.3687 277.496,65.3686 C277.496,65.3684 277.496,65.3682 277,64.5 C276.504,63.6318 276.504,63.6317 276.504,63.6316 C276.504,63.6316 276.504,63.6316 276.504,63.6317 C276.504,63.6318 276.503,63.632 276.503,63.6323 C276.502,63.633 276.5,63.6341 276.497,63.6358 C276.491,63.639 276.482,63.6441 276.47,63.6511 C276.445,63.665 276.407,63.6862 276.356,63.7143 C276.254,63.7704 276.101,63.8537 275.9,63.9605 C275.498,64.174 274.903,64.4809 274.142,64.8502 C272.618,65.589 270.429,66.5758 267.776,67.5628 C262.46,69.5409 255.335,71.5 248,71.5 L248,73.5 Z M277,64.5 C277.662,63.7502 277.661,63.7497 277.661,63.7493 C277.66,63.7491 277.66,63.7486 277.659,63.7483 C277.659,63.7475 277.658,63.7467 277.657,63.7457 C277.654,63.7438 277.652,63.7414 277.648,63.7385 C277.642,63.7329 277.633,63.7254 277.622,63.7163 C277.601,63.698 277.571,63.6728 277.532,63.6413 C277.455,63.5781 277.343,63.4894 277.196,63.3788 C276.902,63.1575 276.467,62.8487 275.884,62.4818 C274.718,61.7479 272.961,60.7825 270.559,59.8215 C265.751,57.8985 258.375,56 248,56 L248,58 C258.125,58 265.249,59.8515 269.816,61.6785 C272.101,62.5925 273.751,63.5021 274.819,64.1745 C275.353,64.5107 275.742,64.7878 275.993,64.9767 C276.119,65.0712 276.21,65.1436 276.267,65.1903 C276.296,65.2137 276.316,65.2306 276.328,65.2407 C276.334,65.2457 276.337,65.249 276.339,65.2506 C276.34,65.2514 276.34,65.2517 276.34,65.2516 C276.34,65.2515 276.34,65.2513 276.34,65.251 C276.34,65.2509 276.339,65.2506 276.339,65.2505 C276.339,65.2502 276.338,65.2498 277,64.5 Z M248,57 C248.026,56.0003 248.025,56.0003 248.025,56.0003 C248.025,56.0003 248.024,56.0003 248.024,56.0003 C248.023,56.0003 248.022,56.0002 248.021,56.0002 C248.018,56.0002 248.015,56.0001 248.011,56 C248.002,55.9998 247.99,55.9996 247.975,55.9993 C247.944,55.9988 247.899,55.9982 247.84,55.9977 C247.724,55.9969 247.554,55.9967 247.335,55.9993 C246.896,56.0046 246.257,56.0211 245.45,56.0659 C243.836,56.1554 241.543,56.358 238.81,56.81 C233.349,57.7132 226.103,59.6172 219.008,63.6295 L219.992,65.3705 C226.824,61.5071 233.828,59.6611 239.136,58.7832 C241.787,58.3447 244.007,58.149 245.561,58.0628 C246.337,58.0198 246.946,58.0041 247.359,57.9992 C247.565,57.9967 247.722,57.9969 247.825,57.9977 C247.877,57.9981 247.916,57.9986 247.941,57.999 C247.953,57.9992 247.963,57.9994 247.968,57.9995 C247.971,57.9996 247.973,57.9996 247.974,57.9997 C247.974,57.9997 247.975,57.9997 247.975,57.9997 C247.975,57.9997 247.975,57.9997 247.975,57.9997 C247.974,57.9997 247.974,57.9997 248,57 Z" id="Shape"></path>
        </g>
    </g>
</svg>
