<?xml version="1.0" encoding="UTF-8"?>
<svg width="310px" height="311px" viewBox="0 0 310 311" version="1.1" xmlns="http://www.w3.org/2000/svg" xmlns:xlink="http://www.w3.org/1999/xlink">
    <!-- Generator: Sketch 53.2 (72643) - https://sketchapp.com -->
    <title>Shape</title>
    <desc>Created with Sketch.</desc>
    <g id="Page-1" stroke="none" stroke-width="1" fill="none" fill-rule="evenodd">
        <g id="illustration-dbaas-email-support" fill="#000000" fill-rule="nonzero">
            <path d="M309.693359,155.34668 C309.693359,127.338685 302.106654,101.118208 289.047135,78.426138 L289.047135,57.2771159 C289.047135,37.3567357 272.836624,21.146224 252.916243,21.146224 L231.767221,21.146224 C209.075151,8.0867058 182.854674,0.5 154.84668,0.5 C126.838685,0.5 100.618208,8.0867058 77.926138,21.146224 L56.777116,21.146224 C36.856736,21.146224 20.646224,37.3567357 20.646224,57.2771159 L20.646224,78.426138 C7.586706,101.118208 0,127.338685 0,155.34668 C0,183.354674 7.586706,209.575151 20.646224,232.267221 L20.646224,253.416243 C20.646224,273.336624 36.856736,289.547135 56.777116,289.547135 L77.926138,289.547135 C100.618208,302.606654 126.838685,310.193359 154.84668,310.193359 C182.854674,310.193359 209.075151,302.606654 231.767221,289.547135 L252.916243,289.547135 C272.836624,289.547135 289.047135,273.336624 289.047135,253.416243 L289.047135,232.267221 C302.106654,209.575151 309.693359,183.354674 309.693359,155.34668 Z M192.097841,284.177655 L185.920607,242.795107 C212.063586,233.473181 232.78983,212.803014 242.193035,186.69847 L283.604566,192.880114 C270.773136,236.818867 236.075659,271.438844 192.097841,284.177655 Z M26.088793,192.880114 L67.500324,186.69847 C76.90353,212.803015 97.629772,233.473181 123.772751,242.795107 L117.595517,284.177655 C73.617701,271.438844 38.920224,236.818867 26.088793,192.880114 Z M117.52054,26.5352363 L123.698403,67.925345 C97.42941,77.317209 76.634489,98.168837 67.323904,124.475634 L25.962777,118.302182 C38.672605,74.158655 73.416707,39.3383149 117.52054,26.5352363 Z M283.730582,118.302182 L242.369457,124.475635 C233.058871,98.168838 212.26395,77.31721 185.994957,67.925346 L192.172821,26.5352373 C236.276653,39.3383149 271.020754,74.158655 283.730582,118.302182 Z M154.84668,227.608464 C115.000879,227.608464 82.584896,195.192481 82.584896,155.34668 C82.584896,115.500879 115.000879,83.084896 154.84668,83.084896 C194.692481,83.084896 227.108464,115.500879 227.108464,155.34668 C227.108464,195.192481 194.692481,227.608464 154.84668,227.608464 Z M252.916243,31.4693359 C267.145807,31.4693359 278.724023,43.0475525 278.724023,57.2771159 L278.724023,62.8330973 C269.812905,50.9329132 259.260446,40.3804547 247.360262,31.4693359 L252.916243,31.4693359 Z M30.969336,57.2771159 C30.969336,43.0475525 42.547553,31.4693359 56.777116,31.4693359 L62.333097,31.4693359 C50.432913,40.3804547 39.880455,50.9329132 30.969336,62.8330973 L30.969336,57.2771159 Z M56.777116,279.224023 C42.547553,279.224023 30.969336,267.645807 30.969336,253.416243 L30.969336,247.860262 C39.880455,259.760446 50.432913,270.312905 62.333097,279.224023 L56.777116,279.224023 Z M278.724023,253.416243 C278.724023,267.645807 267.145807,279.224023 252.916243,279.224023 L247.360262,279.224023 C259.260446,270.312905 269.812905,259.760446 278.724023,247.860262 L278.724023,253.416243 Z" id="Shape"></path>
        </g>
    </g>
</svg>