<?xml version="1.0" encoding="UTF-8"?>
<svg width="29px" height="50px" viewBox="0 0 29 50" version="1.1" xmlns="http://www.w3.org/2000/svg" xmlns:xlink="http://www.w3.org/1999/xlink">
    <!-- Generator: Sketch 53.2 (72643) - https://sketchapp.com -->
    <title>Group</title>
    <desc>Created with Sketch.</desc>
    <g id="Page-1" stroke="none" stroke-width="1" fill="none" fill-rule="evenodd">
        <g id="dns-bottom" transform="translate(-842.000000, -74.000000)" fill="#000000" fill-rule="nonzero">
            <g id="Group" transform="translate(842.549000, 74.000000)">
                <path d="M12.723,47.922 C12.421,48.384 12.55,49.004 13.013,49.306 C13.475,49.608 14.095,49.479 14.397,49.017 L12.723,47.922 Z M14.416,19.1573 C14.702,18.6845 14.55,18.0698 14.077,17.7844 C13.604,17.499 12.989,17.651 12.704,18.1238 L14.416,19.1573 Z M13.919,37.243 C13.919,36.855 14.033,36.363 14.255,35.749 C14.476,35.139 14.767,34.499 15.076,33.798 C15.376,33.118 15.691,32.385 15.906,31.667 C16.12,30.955 16.263,30.172 16.154,29.404 L14.174,29.687 C14.224,30.042 14.168,30.502 13.99,31.093 C13.815,31.678 13.548,32.307 13.247,32.991 C12.954,33.653 12.625,34.376 12.374,35.069 C12.125,35.758 11.919,36.509 11.919,37.243 L13.919,37.243 Z M16.154,29.404 C15.967,28.097 15.494,27.166 15.027,26.358 C14.551,25.536 14.147,24.9353 13.867,24.0976 L11.97,24.7301 C12.332,25.817 12.89,26.659 13.296,27.36 C13.711,28.077 14.04,28.749 14.174,29.687 L16.154,29.404 Z M13.867,24.0976 C13.318,22.451 13.519,20.6433 14.416,19.1573 L12.704,18.1238 C11.504,20.1112 11.236,22.5278 11.97,24.7301 L13.867,24.0976 Z M14.397,49.017 C15.066,47.993 15.526,47 15.764,45.93 C16.001,44.859 16.006,43.765 15.833,42.554 L13.853,42.837 C14.001,43.872 13.985,44.715 13.811,45.496 C13.638,46.276 13.295,47.047 12.723,47.922 L14.397,49.017 Z M15.833,42.554 C15.642,41.218 15.058,40.254 14.637,39.488 C14.209,38.71 13.919,38.098 13.919,37.243 L11.919,37.243 C11.919,38.634 12.43,39.625 12.884,40.452 C13.345,41.289 13.723,41.928 13.853,42.837 L15.833,42.554 Z" id="Shape"></path>
                <path d="M20.421,47.922 C20.119,48.384 20.248,49.004 20.71,49.306 C21.173,49.608 21.792,49.479 22.095,49.017 L20.421,47.922 Z M22.114,19.1573 C22.399,18.6845 22.247,18.0698 21.775,17.7844 C21.302,17.499 20.687,17.651 20.402,18.1238 L22.114,19.1573 Z M21.616,37.243 C21.616,36.855 21.731,36.363 21.953,35.749 C22.173,35.139 22.465,34.499 22.774,33.798 C23.074,33.118 23.388,32.385 23.604,31.667 C23.818,30.955 23.961,30.172 23.851,29.404 L21.871,29.687 C21.922,30.042 21.865,30.502 21.688,31.093 C21.513,31.678 21.246,32.307 20.944,32.991 C20.652,33.653 20.322,34.376 20.072,35.069 C19.823,35.758 19.616,36.509 19.616,37.243 L21.616,37.243 Z M23.851,29.404 C23.665,28.097 23.192,27.166 22.725,26.358 C22.248,25.536 21.844,24.9353 21.565,24.0976 L19.668,24.7301 C20.03,25.817 20.588,26.659 20.994,27.36 C21.408,28.077 21.737,28.749 21.871,29.687 L23.851,29.404 Z M21.565,24.0976 C21.016,22.451 21.217,20.6433 22.114,19.1573 L20.402,18.1238 C19.202,20.1112 18.934,22.5278 19.668,24.7301 L21.565,24.0976 Z M22.095,49.017 C22.764,47.993 23.223,47 23.461,45.93 C23.699,44.859 23.704,43.765 23.531,42.554 L21.551,42.837 C21.699,43.872 21.682,44.715 21.509,45.496 C21.335,46.276 20.993,47.047 20.421,47.922 L22.095,49.017 Z M23.531,42.554 C23.34,41.218 22.756,40.254 22.334,39.488 C21.907,38.71 21.616,38.098 21.616,37.243 L19.616,37.243 C19.616,38.634 20.127,39.625 20.582,40.452 C21.043,41.289 21.421,41.928 21.551,42.837 L23.531,42.554 Z" id="Shape"></path>
                <path d="M1.051,13.8295 L0.053,13.7796 L-5.68434189e-14,14.8295 L1.051,14.8295 L1.051,13.8295 Z M27.031,13.8295 L27.031,14.8295 L28.109,14.8295 L28.028,13.7547 L27.031,13.8295 Z M5.025,47.922 C4.723,48.384 4.853,49.004 5.315,49.306 C5.777,49.608 6.397,49.479 6.699,49.017 L5.025,47.922 Z M6.718,19.1573 C7.004,18.6845 6.852,18.0698 6.379,17.7844 C5.906,17.499 5.292,17.651 5.006,18.1238 L6.718,19.1573 Z M1.051,14.8295 L27.031,14.8295 L27.031,12.8295 L1.051,12.8295 L1.051,14.8295 Z M27.031,13.8295 C28.028,13.7547 28.028,13.7542 28.028,13.7536 C28.028,13.7534 28.028,13.7528 28.028,13.7523 C28.028,13.7513 28.028,13.7501 28.028,13.7487 C28.028,13.7459 28.027,13.7423 28.027,13.7379 C28.026,13.7292 28.025,13.7175 28.024,13.7027 C28.021,13.6733 28.017,13.6319 28.012,13.5793 C28,13.4743 27.983,13.3247 27.956,13.1368 C27.902,12.7613 27.812,12.2312 27.664,11.5977 C27.369,10.3348 26.841,8.6389 25.903,6.9328 C24.005,3.4825 20.419,0 13.881,0 L13.881,2 C19.53,2 22.52,4.9322 24.15,7.8967 C24.976,9.398 25.45,10.9095 25.716,12.0521 C25.849,12.6214 25.929,13.0936 25.976,13.4196 C25.999,13.5825 26.014,13.7085 26.023,13.7915 C26.027,13.8329 26.03,13.8636 26.032,13.8826 C26.033,13.8922 26.033,13.8988 26.034,13.9025 C26.034,13.9043 26.034,13.9053 26.034,13.9057 C26.034,13.9058 26.034,13.9058 26.034,13.9055 C26.034,13.9054 26.034,13.9051 26.034,13.9051 C26.034,13.9047 26.034,13.9043 27.031,13.8295 Z M13.881,0 C7.337,0 3.827,3.4884 2.01,6.9499 C1.113,8.6591 0.626,10.3573 0.363,11.6209 C0.231,12.2549 0.154,12.7854 0.11,13.1612 C0.087,13.3492 0.073,13.4989 0.065,13.604 C0.06,13.6566 0.058,13.698 0.056,13.7275 C0.055,13.7423 0.054,13.754 0.053,13.7628 C0.053,13.7671 0.053,13.7707 0.053,13.7735 C0.053,13.7749 0.053,13.7761 0.053,13.7771 C0.053,13.7776 0.053,13.7782 0.053,13.7785 C0.053,13.779 0.053,13.7796 1.051,13.8295 C2.05,13.8794 2.05,13.8798 2.05,13.8802 C2.05,13.8803 2.05,13.8806 2.05,13.8807 C2.05,13.8809 2.05,13.881 2.05,13.8808 C2.05,13.8805 2.05,13.8795 2.05,13.8776 C2.05,13.874 2.051,13.8674 2.051,13.8579 C2.053,13.8388 2.055,13.8082 2.058,13.7668 C2.065,13.684 2.077,13.5581 2.096,13.3953 C2.134,13.0694 2.202,12.5976 2.321,12.0288 C2.559,10.8869 2.994,9.3777 3.781,7.8796 C5.331,4.9263 8.236,2 13.881,2 L13.881,0 Z M6.221,37.243 C6.221,36.855 6.335,36.363 6.557,35.749 C6.778,35.139 7.069,34.499 7.379,33.798 C7.679,33.118 7.993,32.385 8.208,31.667 C8.422,30.955 8.566,30.172 8.456,29.404 L6.476,29.687 C6.527,30.042 6.47,30.502 6.293,31.092 C6.117,31.678 5.85,32.307 5.549,32.991 C5.257,33.653 4.927,34.376 4.676,35.069 C4.427,35.758 4.221,36.509 4.221,37.243 L6.221,37.243 Z M8.456,29.404 C8.269,28.097 7.797,27.166 7.329,26.358 C6.853,25.536 6.449,24.9353 6.17,24.0976 L4.272,24.7301 C4.634,25.817 5.192,26.659 5.598,27.36 C6.013,28.076 6.342,28.749 6.476,29.687 L8.456,29.404 Z M6.17,24.0976 C5.621,22.451 5.822,20.6433 6.718,19.1573 L5.006,18.1238 C3.807,20.1112 3.538,22.5278 4.272,24.7301 L6.17,24.0976 Z M6.699,49.017 C7.369,47.993 7.828,47 8.066,45.93 C8.304,44.859 8.308,43.765 8.135,42.554 L6.155,42.837 C6.303,43.872 6.287,44.715 6.113,45.496 C5.94,46.276 5.597,47.047 5.025,47.922 L6.699,49.017 Z M8.135,42.554 C7.944,41.218 7.36,40.254 6.939,39.488 C6.512,38.71 6.221,38.098 6.221,37.243 L4.221,37.243 C4.221,38.634 4.732,39.625 5.187,40.452 C5.647,41.289 6.025,41.928 6.155,42.837 L8.135,42.554 Z" id="Shape"></path>
            </g>
        </g>
    </g>
</svg>