<?xml version="1.0" encoding="UTF-8"?>
<svg width="44px" height="76px" viewBox="0 0 44 76" version="1.1" xmlns="http://www.w3.org/2000/svg" xmlns:xlink="http://www.w3.org/1999/xlink">
    <!-- Generator: Sketch 53.2 (72643) - https://sketchapp.com -->
    <title>Group</title>
    <desc>Created with Sketch.</desc>
    <g id="Page-1" stroke="none" stroke-width="1" fill="none" fill-rule="evenodd">
        <g id="dns-top" transform="translate(0.000000, -20.000000)" fill="#000000" fill-rule="nonzero">
            <g id="Group" transform="translate(0.948751, 20.000000)">
                <path d="M19.714449,74.4526 C19.412049,74.9148 19.541749,75.5346 20.003949,75.8369 C20.466049,76.1392 21.085849,76.0096 21.388149,75.5474 L19.714449,74.4526 Z M21.407449,29.0168 C21.692849,28.5439 21.540849,27.9293 21.068049,27.6439 C20.595249,27.3585 19.980549,27.5104 19.695149,27.9832 L21.407449,29.0168 Z M20.551249,57.5 C20.551249,56.7983 20.755249,55.9588 21.108849,54.9806 C21.461149,54.0062 21.926449,52.9855 22.403749,51.9036 C22.871649,50.843 23.348549,49.7288 23.673149,48.6467 C23.996249,47.57 24.195749,46.4402 24.041249,45.3586 L22.061349,45.6414 C22.156849,46.3098 22.043849,47.1175 21.757549,48.072 C21.472749,49.0212 21.043449,50.032 20.573849,51.0964 C20.113649,52.1395 19.610149,53.2438 19.228049,54.3006 C18.847349,55.3537 18.551249,56.4517 18.551249,57.5 L20.551249,57.5 Z M24.041249,45.3586 C23.764849,43.4242 23.068149,42.0447 22.354249,40.8115 C21.631549,39.5633 20.958449,38.5593 20.499949,37.1838 L18.602649,37.8162 C19.144149,39.4407 19.970949,40.6867 20.623349,41.8135 C21.284349,42.9553 21.837649,44.0758 22.061349,45.6414 L24.041249,45.3586 Z M20.499949,37.1838 C19.592549,34.4616 19.924649,31.4734 21.407449,29.0168 L19.695149,27.9832 C17.909649,30.9413 17.509949,34.5384 18.602649,37.8162 L20.499949,37.1838 Z M21.388149,75.5474 C22.404649,73.9933 23.087949,72.5073 23.440749,70.9199 C23.793449,69.3324 23.803849,67.6969 23.541249,65.8586 L21.561349,66.1414 C21.798749,67.8031 21.776749,69.1881 21.488349,70.486 C21.199949,71.7839 20.633249,73.0478 19.714449,74.4526 L21.388149,75.5474 Z M23.541249,65.8586 C23.260749,63.8952 22.407749,62.4822 21.740049,61.2681 C21.066049,60.0427 20.551249,58.9819 20.551249,57.5 L18.551249,57.5 C18.551249,59.5181 19.286549,60.9573 19.987549,62.2319 C20.694849,63.5178 21.341849,64.6048 21.561349,66.1414 L23.541249,65.8586 Z" id="Shape"></path>
                <path d="M31.714449,74.4526 C31.412049,74.9148 31.541749,75.5346 32.003949,75.8369 C32.466049,76.1392 33.085849,76.0096 33.388149,75.5474 L31.714449,74.4526 Z M33.407449,29.0168 C33.692849,28.5439 33.540849,27.9293 33.068049,27.6439 C32.595249,27.3585 31.980549,27.5104 31.695149,27.9832 L33.407449,29.0168 Z M32.551249,57.5 C32.551249,56.7983 32.755249,55.9588 33.108849,54.9806 C33.461149,54.0062 33.926449,52.9855 34.403749,51.9036 C34.871649,50.843 35.348549,49.7288 35.673149,48.6467 C35.996249,47.57 36.195749,46.4402 36.041249,45.3586 L34.061349,45.6414 C34.156849,46.3098 34.043849,47.1175 33.757549,48.072 C33.472749,49.0212 33.043449,50.032 32.573849,51.0964 C32.113649,52.1395 31.610149,53.2438 31.228049,54.3006 C30.847349,55.3537 30.551249,56.4517 30.551249,57.5 L32.551249,57.5 Z M36.041249,45.3586 C35.764849,43.4242 35.068149,42.0447 34.354249,40.8115 C33.631549,39.5633 32.958449,38.5593 32.499949,37.1838 L30.602649,37.8162 C31.144149,39.4407 31.970949,40.6867 32.623349,41.8135 C33.284349,42.9553 33.837649,44.0758 34.061349,45.6414 L36.041249,45.3586 Z M32.499949,37.1838 C31.592549,34.4616 31.924649,31.4734 33.407449,29.0168 L31.695149,27.9832 C29.909649,30.9413 29.509949,34.5384 30.602649,37.8162 L32.499949,37.1838 Z M33.388149,75.5474 C34.404649,73.9933 35.087949,72.5073 35.440749,70.9199 C35.793449,69.3324 35.803849,67.6969 35.541249,65.8586 L33.561349,66.1414 C33.798749,67.8031 33.776749,69.1881 33.488349,70.486 C33.199949,71.7839 32.633249,73.0478 31.714449,74.4526 L33.388149,75.5474 Z M35.541249,65.8586 C35.260749,63.8952 34.407749,62.4822 33.740049,61.2681 C33.066049,60.0427 32.551249,58.9819 32.551249,57.5 L30.551249,57.5 C30.551249,59.5181 31.286549,60.9573 31.987549,62.2319 C32.694849,63.5178 33.341849,64.6048 33.561349,66.1414 L35.541249,65.8586 Z" id="Shape"></path>
                <path d="M1.051249,21 L0.052499,20.9501 L0,22 L1.051249,22 L1.051249,21 Z M41.551249,21 L41.551249,22 L42.629049,22 L42.548449,20.9252 L41.551249,21 Z M7.714369,74.4526 C7.412059,74.9148 7.541669,75.5346 8.003869,75.8369 C8.466059,76.1392 9.085849,76.0096 9.388149,75.5474 L7.714369,74.4526 Z M9.407349,29.0168 C9.692749,28.5439 9.540849,27.9293 9.068049,27.6439 C8.595189,27.3585 7.980519,27.5104 7.695119,27.9832 L9.407349,29.0168 Z M1.051249,22 L41.551249,22 L41.551249,20 L1.051249,20 L1.051249,22 Z M41.551249,21 C42.548449,20.9252 42.548449,20.9247 42.548349,20.9241 C42.548349,20.9238 42.548249,20.9231 42.548249,20.9225 C42.548149,20.9212 42.548049,20.9197 42.547849,20.9179 C42.547549,20.9142 42.547249,20.9093 42.546749,20.9032 C42.545649,20.8911 42.544249,20.8742 42.542349,20.8527 C42.538449,20.8096 42.532549,20.7481 42.524149,20.6693 C42.507349,20.5118 42.480449,20.2851 42.439649,19.9992 C42.357949,19.4276 42.220049,18.6174 41.993849,17.6478 C41.542349,15.7127 40.733749,13.1205 39.302449,10.5181 C36.418849,5.2752 30.995749,0 21.051249,0 L21.051249,2 C30.106749,2 34.933649,6.7248 37.550049,11.4819 C38.868749,13.8795 39.622649,16.2873 40.046149,18.1022 C40.257449,19.0076 40.385149,19.7599 40.459749,20.282 C40.497049,20.543 40.520949,20.746 40.535449,20.8815 C40.542649,20.9492 40.547449,20.9999 40.550449,21.0326 C40.551849,21.0489 40.552849,21.0607 40.553449,21.0678 C40.553749,21.0713 40.553949,21.0737 40.554049,21.0749 C40.554049,21.0754 40.554149,21.0757 40.554149,21.0757 C40.554149,21.0757 40.554149,21.0755 40.554149,21.0755 C40.554049,21.0752 40.554049,21.0748 41.551249,21 Z M21.051249,0 C11.101949,0 5.799259,5.2811 3.040849,10.5352 C1.672949,13.1407 0.928699,15.7352 0.525389,17.671 C0.323289,18.6412 0.205589,19.4518 0.138199,20.0236 C0.104489,20.3096 0.083309,20.5364 0.070439,20.694 C0.063999,20.7728 0.059639,20.8344 0.056829,20.8774 C0.055419,20.899 0.054399,20.9159 0.053699,20.9281 C0.053349,20.9341 0.053079,20.939 0.052879,20.9427 C0.052779,20.9445 0.052699,20.9461 0.052639,20.9473 C0.052609,20.9479 0.052569,20.9486 0.052559,20.9489 C0.052519,20.9495 0.052499,20.9501 1.051249,21 C2.049999,21.0499 2.049979,21.0503 2.049969,21.0506 C2.049969,21.0506 2.049949,21.0509 2.049949,21.0509 C2.049949,21.0509 2.049969,21.0506 2.049999,21.05 C2.050059,21.0488 2.050189,21.0465 2.050399,21.0429 C2.050799,21.0359 2.051509,21.0241 2.052569,21.0078 C2.054699,20.9752 2.058269,20.9245 2.063799,20.8568 C2.074859,20.7214 2.093719,20.5185 2.124449,20.2577 C2.185969,19.7357 2.294839,18.9838 2.483359,18.079 C2.861299,16.2648 3.554549,13.8593 4.811649,11.4648 C7.303239,6.7189 12.000549,2 21.051249,2 L21.051249,0 Z M8.551249,57.5 C8.551249,56.7983 8.755209,55.9588 9.108849,54.9806 C9.461149,54.0062 9.926349,52.9855 10.403649,51.9036 C10.871649,50.843 11.348549,49.7288 11.673149,48.6467 C11.996149,47.57 12.195749,46.4402 12.041149,45.3586 L10.061349,45.6414 C10.156749,46.3098 10.043849,47.1175 9.757449,48.072 C9.472749,49.0212 9.043389,50.032 8.573829,51.0964 C8.113629,52.1395 7.610099,53.2438 7.228009,54.3006 C6.847289,55.3537 6.551249,56.4517 6.551249,57.5 L8.551249,57.5 Z M12.041149,45.3586 C11.764849,43.4242 11.068149,42.0447 10.354149,40.8115 C9.631549,39.5633 8.958429,38.5593 8.499929,37.1838 L6.602569,37.8162 C7.144069,39.4407 7.970949,40.6867 8.623319,41.8135 C9.284349,42.9553 9.837649,44.0758 10.061349,45.6414 L12.041149,45.3586 Z M8.499929,37.1838 C7.592539,34.4616 7.924569,31.4734 9.407349,29.0168 L7.695119,27.9832 C5.909639,30.9413 5.509959,34.5384 6.602569,37.8162 L8.499929,37.1838 Z M9.388149,75.5474 C10.404549,73.9933 11.087949,72.5073 11.440649,70.9199 C11.793449,69.3324 11.803849,67.6969 11.541149,65.8586 L9.561349,66.1414 C9.798649,67.8031 9.776749,69.1881 9.488249,70.486 C9.199849,71.7839 8.633199,73.0478 7.714369,74.4526 L9.388149,75.5474 Z M11.541149,65.8586 C11.260749,63.8952 10.407749,62.4822 9.739949,61.2681 C9.066049,60.0427 8.551249,58.9819 8.551249,57.5 L6.551249,57.5 C6.551249,59.5181 7.286489,60.9573 7.987529,62.2319 C8.694789,63.5178 9.341749,64.6048 9.561349,66.1414 L11.541149,65.8586 Z" id="Shape"></path>
            </g>
        </g>
    </g>
</svg>