<?xml version="1.0" encoding="UTF-8"?>
<svg width="36px" height="61px" viewBox="0 0 36 61" version="1.1" xmlns="http://www.w3.org/2000/svg" xmlns:xlink="http://www.w3.org/1999/xlink">
    <!-- Generator: Sketch 53.2 (72643) - https://sketchapp.com -->
    <title>Group 2</title>
    <desc>Created with Sketch.</desc>
    <g id="Page-1" stroke="none" stroke-width="1" fill="none" fill-rule="evenodd">
        <g id="dns-top" transform="translate(-1273.000000, 0.000000)" fill="#000000" fill-rule="nonzero">
            <g id="Group-2" transform="translate(1273.950000, 0.000000)">
                <path d="M15.62,58.9218 C15.32,59.3839 15.45,60.0037 15.91,60.306 C16.37,60.6083 16.99,60.4787 17.29,60.0165 L15.62,58.9218 Z M17.31,23.2452 C17.6,22.7723 17.45,22.1577 16.97,21.8723 C16.5,21.5869 15.89,21.7388 15.6,22.2116 L17.31,23.2452 Z M16.67,45.642 C16.67,45.1239 16.82,44.4877 17.1,43.7227 C17.37,42.9615 17.73,42.1638 18.11,41.3049 C18.48,40.4672 18.86,39.576 19.13,38.7071 C19.38,37.8435 19.55,36.9171 19.42,36.0191 L17.44,36.3019 C17.51,36.7866 17.43,37.3911 17.21,38.1324 C16.99,38.8684 16.65,39.6563 16.28,40.4976 C15.92,41.3177 15.52,42.199 15.21,43.0427 C14.91,43.8826 14.67,44.7774 14.67,45.642 L16.67,45.642 Z M19.42,36.0191 C19.2,34.4519 18.63,33.3348 18.06,32.3508 C17.49,31.3519 16.97,30.584 16.62,29.5233 L14.72,30.1557 C15.16,31.4654 15.82,32.4753 16.33,33.3529 C16.85,34.2454 17.27,35.1036 17.44,36.3019 L19.42,36.0191 Z M16.62,29.5233 C15.92,27.4307 16.17,25.1336 17.31,23.2452 L15.6,22.2116 C14.16,24.6015 13.84,27.5075 14.72,30.1557 L16.62,29.5233 Z M17.29,60.0165 C18.11,58.773 18.66,57.5755 18.95,56.2909 C19.23,55.0062 19.24,53.6876 19.03,52.2166 L17.05,52.4994 C17.23,53.7939 17.21,54.8619 16.99,55.857 C16.77,56.8521 16.34,57.8275 15.62,58.9218 L17.29,60.0165 Z M19.03,52.2166 C18.8,50.6205 18.1,49.4698 17.58,48.5181 C17.05,47.5551 16.67,46.7566 16.67,45.642 L14.67,45.642 C14.67,47.2928 15.27,48.4696 15.83,49.4819 C16.39,50.5055 16.88,51.3301 17.05,52.4994 L19.03,52.2166 Z" id="Shape"></path>
                <path d="M25.1,58.9218 C24.8,59.3839 24.93,60.0037 25.39,60.306 C25.85,60.6083 26.47,60.4787 26.78,60.0165 L25.1,58.9218 Z M26.8,23.2452 C27.08,22.7723 26.93,22.1577 26.46,21.8723 C25.98,21.5869 25.37,21.7388 25.08,22.2116 L26.8,23.2452 Z M26.15,45.642 C26.15,45.1239 26.3,44.4877 26.58,43.7227 C26.85,42.9615 27.22,42.1638 27.59,41.3049 C27.96,40.4672 28.35,39.576 28.61,38.7071 C28.87,37.8435 29.03,36.9171 28.9,36.0191 L26.92,36.3019 C26.99,36.7866 26.91,37.3911 26.69,38.1324 C26.47,38.8684 26.14,39.6563 25.76,40.4976 C25.4,41.3177 25,42.199 24.7,43.0427 C24.39,43.8826 24.15,44.7774 24.15,45.642 L26.15,45.642 Z M28.9,36.0191 C28.68,34.4519 28.11,33.3348 27.55,32.3508 C26.97,31.3519 26.45,30.584 26.1,29.5233 L24.2,30.1557 C24.64,31.4654 25.31,32.4753 25.81,33.3529 C26.33,34.2454 26.75,35.1036 26.92,36.3019 L28.9,36.0191 Z M26.1,29.5233 C25.4,27.4307 25.66,25.1336 26.8,23.2452 L25.08,22.2116 C23.64,24.6015 23.32,27.5075 24.2,30.1557 L26.1,29.5233 Z M26.78,60.0165 C27.59,58.773 28.14,57.5755 28.43,56.2909 C28.71,55.0062 28.72,53.6876 28.51,52.2166 L26.53,52.4994 C26.71,53.7939 26.7,54.8619 26.47,55.857 C26.25,56.8521 25.82,57.8275 25.1,58.9218 L26.78,60.0165 Z M28.51,52.2166 C28.28,50.6205 27.59,49.4698 27.06,48.5181 C26.53,47.5551 26.15,46.7566 26.15,45.642 L24.15,45.642 C24.15,47.2928 24.75,48.4696 25.31,49.4819 C25.87,50.5055 26.36,51.3301 26.53,52.4994 L28.51,52.2166 Z" id="Shape"></path>
                <path d="M1.05,16.8025 L0.05,16.7525 L1.13686838e-13,17.8025 L1.05,17.8025 L1.05,16.8025 Z M33.05,16.8025 L33.05,17.8025 L34.13,17.8025 L34.05,16.7277 L33.05,16.8025 Z M6.14,58.9218 C5.84,59.3839 5.97,60.0037 6.43,60.306 C6.89,60.6083 7.51,60.4787 7.81,60.0165 L6.14,58.9218 Z M7.83,23.2452 C8.12,22.7723 7.97,22.1577 7.49,21.8723 C7.02,21.5869 6.41,21.7388 6.12,22.2116 L7.83,23.2452 Z M1.05,17.8025 L33.05,17.8025 L33.05,15.8025 L1.05,15.8025 L1.05,17.8025 Z M33.05,16.8025 C34.05,16.7277 34.05,16.7272 34.05,16.7266 C34.05,16.7263 34.05,16.7257 34.05,16.7251 C34.05,16.724 34.05,16.7227 34.05,16.7211 C34.05,16.7179 34.05,16.7138 34.05,16.7088 C34.04,16.6986 34.04,16.6847 34.04,16.6672 C34.04,16.6321 34.03,16.5823 34.03,16.5189 C34.01,16.3922 33.99,16.2106 33.96,15.982 C33.89,15.5252 33.78,14.879 33.6,14.1061 C33.24,12.5645 32.6,10.497 31.46,8.41932 C29.15,4.22579 24.8,0 16.85,0 L16.85,2 C23.91,2 27.67,5.67545 29.7,9.38315 C30.73,11.2561 31.32,13.1392 31.66,14.5606 C31.82,15.2692 31.92,15.8575 31.98,16.2649 C32.01,16.4684 32.03,16.6264 32.04,16.7311 C32.04,16.7834 32.05,16.8224 32.05,16.8471 C32.05,16.8594 32.05,16.8682 32.05,16.8733 C32.05,16.8758 32.05,16.8774 32.05,16.8781 C32.05,16.8784 32.05,16.8785 32.05,16.8784 C32.05,16.8783 32.05,16.878 32.05,16.878 C32.05,16.8777 32.05,16.8773 33.05,16.8025 Z M16.85,0 C8.9,0 4.64,4.23167 2.44,8.4364 C1.34,10.5172 0.75,12.587 0.43,14.1294 C0.27,14.9027 0.17,15.5494 0.12,16.0064 C0.09,16.2351 0.08,16.4168 0.07,16.5436 C0.06,16.607 0.06,16.6568 0.05,16.692 C0.05,16.7095 0.05,16.7234 0.05,16.7336 C0.05,16.7386 0.05,16.7428 0.05,16.7459 C0.05,16.7475 0.05,16.7489 0.05,16.75 C0.05,16.7505 0.05,16.7511 0.05,16.7514 C0.05,16.752 0.05,16.7525 1.05,16.8025 C2.05,16.8524 2.05,16.8528 2.05,16.8532 C2.05,16.8532 2.05,16.8535 2.05,16.8535 C2.05,16.8537 2.05,16.8536 2.05,16.8533 C2.05,16.8526 2.05,16.851 2.05,16.8485 C2.05,16.8434 2.05,16.8347 2.05,16.8223 C2.05,16.7977 2.05,16.7587 2.06,16.7064 C2.07,16.6018 2.08,16.4439 2.11,16.2405 C2.15,15.8333 2.24,15.2454 2.39,14.5373 C2.68,13.1167 3.23,11.2359 4.21,9.36607 C6.15,5.66956 9.8,2 16.85,2 L16.85,0 Z M7.19,45.642 C7.19,45.1239 7.34,44.4877 7.61,43.7227 C7.89,42.9615 8.25,42.1638 8.63,41.3049 C9,40.4672 9.38,39.576 9.64,38.7071 C9.9,37.8435 10.07,36.9171 9.94,36.0191 L7.96,36.3019 C8.03,36.7866 7.95,37.3911 7.73,38.1324 C7.51,38.8684 7.17,39.6563 6.8,40.4976 C6.44,41.3177 6.04,42.199 5.73,43.0427 C5.43,43.8826 5.19,44.7774 5.19,45.642 L7.19,45.642 Z M9.94,36.0191 C9.72,34.452 9.15,33.3348 8.58,32.3508 C8,31.3519 7.49,30.584 7.13,29.5233 L5.24,30.1557 C5.67,31.4654 6.34,32.4753 6.85,33.3529 C7.37,34.2454 7.79,35.1036 7.96,36.3019 L9.94,36.0191 Z M7.13,29.5233 C6.44,27.4307 6.69,25.1336 7.83,23.2452 L6.12,22.2116 C4.68,24.6015 4.35,27.5075 5.24,30.1557 L7.13,29.5233 Z M7.81,60.0165 C8.63,58.773 9.18,57.5755 9.46,56.2909 C9.75,55.0062 9.76,53.6876 9.55,52.2166 L7.57,52.4994 C7.75,53.7939 7.73,54.8619 7.51,55.857 C7.29,56.8521 6.85,57.8275 6.14,58.9218 L7.81,60.0165 Z M9.55,52.2166 C9.32,50.6205 8.62,49.4698 8.1,48.5181 C7.57,47.5551 7.19,46.7566 7.19,45.642 L5.19,45.642 C5.19,47.2928 5.79,48.4696 6.35,49.4819 C6.91,50.5055 7.4,51.3301 7.57,52.4994 L9.55,52.2166 Z" id="Shape"></path>
            </g>
        </g>
    </g>
</svg>