<?xml version="1.0" encoding="UTF-8"?>
<svg width="311px" height="316px" viewBox="0 0 311 316" version="1.1" xmlns="http://www.w3.org/2000/svg" xmlns:xlink="http://www.w3.org/1999/xlink">
    <!-- Generator: Sketch 53.2 (72643) - https://sketchapp.com -->
    <title>wheels-01</title>
    <desc>Created with Sketch.</desc>
    <g id="wheels-01-outer" stroke="none" stroke-width="1" fill="none" fill-rule="evenodd">
        <g id="wheels-01-inner" transform="translate(163.000000, 152.500000) rotate(10.000000) translate(-163.000000, -152.500000) translate(5.000000, -2.000000)" fill="#000000" fill-rule="nonzero">
            <path d="M307.435141,188.433148 C306.960759,188.433148 306.486376,188.433148 306.486376,187.95779 C306.486376,187.482433 305.537611,187.482433 304.588846,187.482433 C302.691316,187.007076 300.793786,187.007076 298.896256,187.007076 C297.947491,187.007076 296.998726,187.007076 296.049961,186.531718 L295.575579,186.531718 C290.357372,186.056361 284.664782,185.105646 279.446574,183.679574 C278.023427,183.204216 276.600279,181.778144 276.125897,180.352072 C276.600279,180.352072 276.125897,180.352072 276.125897,180.352072 L272.330837,179.401357 C274.228367,165.615992 273.279602,151.35527 270.433307,137.569905 C267.11263,123.78454 261.42004,110.474533 253.82992,98.590598 L256.676215,95.738453 L256.676215,95.263096 C256.676215,93.8370239 257.150597,91.9355942 258.099362,90.9848794 C262.368805,87.1820202 266.638247,84.3298757 271.382072,81.4777313 C272.330837,81.0023739 273.279602,80.5270165 274.228367,80.0516591 C276.125897,79.1009443 277.549044,78.1502294 279.446574,77.1995146 C279.920957,76.7241572 280.395339,76.7241572 280.869722,76.2487998 C281.344104,75.7734424 280.869722,75.7734424 280.869722,75.298085 C285.139164,71.9705832 286.087929,66.2662943 282.767252,61.9880776 C281.344104,60.086648 278.497809,58.6605758 276.125897,58.6605758 C273.753984,58.6605758 271.382072,59.6112906 269.484542,61.0373628 L269.010159,61.5127202 C268.535777,61.9880776 268.061394,62.463435 267.587012,62.463435 C266.163865,63.8895072 264.740717,65.3155795 263.791952,66.7416517 C263.31757,67.6923665 262.368805,68.1677239 261.894422,68.6430813 C258.573745,72.4459406 254.304302,76.2487998 250.03486,79.1009443 C249.086095,79.5763017 248.13733,80.0516591 247.188565,80.0516591 C246.714182,80.0516591 245.765417,80.0516591 245.291035,79.5763017 L244.816652,79.5763017 L241.021593,81.9530887 C237.226533,78.1502294 232.95709,74.3473702 229.16203,70.5445109 C211.609878,56.7591461 189.788284,48.2027128 167.492307,45.8259258 L167.017924,42.0230665 L167.017924,42.4984239 C165.594777,41.5477091 165.120394,40.1216369 164.646012,38.6955647 C164.646012,33.4666332 164.646012,28.2377017 165.594777,22.5334129 L165.594777,22.0580554 C165.594777,21.1073406 166.069159,20.1566258 166.069159,19.205911 C166.543542,17.3044814 166.543542,15.4030518 167.017924,13.5016221 L167.017924,10.6494777 C167.492307,5.8959036 163.697247,1.14232955 158.953422,0.66697215 C156.107127,0.19161474 153.260832,1.61768696 150.888919,3.99447399 C148.99139,5.8959036 148.042625,8.2726907 148.042625,10.6494777 L148.042625,13.0262647 C148.042625,14.9276943 148.517007,16.829124 148.99139,18.7305536 C149.465772,19.6812684 149.465772,20.6319832 149.465772,21.582698 L149.465772,22.0580554 C150.414537,27.2869869 150.414537,32.5159184 150.414537,38.2202073 C149.940154,39.6462795 149.465772,41.0723517 148.042625,42.0230665 L148.042625,42.9737813 L147.568242,46.7766406 C142.350035,47.251998 137.131827,48.2027128 131.439237,49.1534276 C109.14326,53.9070017 88.744813,65.7909369 73.090191,82.4284461 L70.243896,80.5270165 L69.769514,80.5270165 C69.295131,80.5270165 68.820749,81.0023739 67.871984,81.0023739 C66.923219,81.0023739 65.974454,80.5270165 65.025689,80.0516591 C60.756246,76.7241572 56.486804,72.921298 53.166127,69.1184387 C52.691744,68.1677239 51.742979,67.6923665 51.268597,67.2170091 C49.845449,65.7909369 48.896684,64.3648646 47.473537,62.9387924 C46.999154,62.463435 46.524772,62.463435 46.050389,61.9880776 C45.576007,61.5127202 45.576007,61.5127202 45.576007,61.5127202 C43.678477,60.086648 41.306564,59.1359332 38.934652,59.1359332 C36.088357,59.1359332 33.716444,60.086648 32.293297,62.463435 C29.447002,66.7416517 30.395767,72.4459406 34.190827,75.7734424 C34.665209,75.7734424 34.665209,76.2487998 34.665209,76.2487998 C34.665209,76.2487998 35.613974,77.1995146 36.088357,77.1995146 C37.511504,78.1502294 39.409034,79.1009443 41.306564,80.0516591 C42.255329,80.5270165 43.204094,81.0023739 44.152859,81.4777313 C48.896684,84.3298757 53.640509,87.1820202 57.435569,90.9848794 C58.384334,91.9355942 59.333099,93.8370239 58.858716,95.263096 L58.858716,94.7877387 L61.705011,97.639883 C61.230629,98.590598 60.756246,99.065955 60.281864,100.01667 C45.576007,123.309183 39.409034,150.879913 43.678477,177.975285 L39.883417,178.926 C39.883417,179.401357 39.409034,179.401357 39.409034,179.401357 C38.934652,180.827429 37.511504,181.778144 36.088357,182.728859 C30.870149,184.154931 25.651942,185.105646 19.959352,185.581003 C19.010587,185.581003 18.061822,185.581003 17.113057,186.056361 C15.215527,186.056361 13.317997,186.531718 11.420467,186.531718 C10.946085,186.531718 10.471702,187.007076 9.522937,187.007076 C9.048555,187.007076 9.048555,187.007076 8.574172,187.482433 C3.355965,188.433148 0.035288,193.186722 0.984053,198.415653 C0.984053,198.415653 0.984053,198.415653 0.984053,198.415653 C1.932818,202.69387 6.20226,205.546014 10.471702,205.070657 C11.420467,205.070657 11.89485,205.070657 12.843615,204.5953 C13.317997,204.5953 13.317997,204.5953 13.317997,204.119942 C13.317997,203.644585 14.741145,204.119942 15.215527,204.119942 C17.113057,203.644585 19.010587,202.69387 20.433735,202.218513 C21.3825,201.743155 22.331265,201.267798 23.28003,201.267798 L23.754412,201.267798 C28.97262,199.366368 33.716444,197.940296 39.409034,196.989581 L39.883417,196.989581 C41.306564,196.989581 42.729712,197.464939 43.678477,198.415653 C44.152859,198.415653 44.152859,198.891011 44.152859,198.891011 L48.422302,198.415653 C55.538039,220.282094 68.820749,239.771748 87.321666,254.03247 C91.591108,257.359972 95.386168,260.212116 100.129993,262.588903 L97.758081,265.916405 C97.758081,266.391762 98.232463,266.391762 98.232463,266.391762 C99.181228,267.817835 99.181228,269.719264 98.706846,271.145337 C96.809316,275.898911 93.963021,280.652485 91.116726,284.930701 L91.116726,285.406059 C90.642343,286.356774 90.167961,286.832131 89.219196,287.782846 C88.270431,288.733561 87.321666,290.63499 85.898518,292.53642 C85.424136,293.011777 85.424136,293.487135 84.949753,293.962492 C84.949753,293.962492 84.949753,294.437849 84.475371,294.437849 C82.103458,299.191424 84.000988,304.895712 88.270431,307.272499 C89.219196,307.747857 90.642343,308.223214 91.591108,308.223214 C95.386168,308.223214 98.706846,305.846427 100.604376,302.518925 C100.604376,302.518925 100.604376,302.043568 101.078758,302.043568 C101.078758,301.568211 101.553141,301.092853 102.027523,300.617496 C102.501905,298.716066 103.45067,297.289994 103.925053,295.388564 L104.873818,292.53642 C106.296965,287.307488 108.668878,282.553914 111.04079,277.80034 C111.989555,276.374268 113.412703,275.423553 114.83585,274.948196 C115.310233,274.948196 115.310233,274.948196 115.310233,274.472838 L117.207763,270.669979 C130.490472,275.898911 144.247565,278.275698 158.479039,278.275698 C167.017924,278.275698 175.556809,277.324983 184.095694,274.948196 C189.313901,273.997481 194.532109,272.096051 199.275933,270.669979 L201.173463,273.997481 C201.647846,273.997481 201.647846,273.997481 201.647846,274.472838 C203.070993,274.948196 204.494141,275.898911 205.442906,277.324983 C207.814818,282.078557 210.186731,286.832131 211.609878,292.061062 L211.609878,292.53642 L212.558643,295.388564 C213.033026,297.289994 213.507408,299.191424 214.456173,300.617496 C214.930556,301.092853 214.930556,301.568211 215.404938,302.043568 C215.404938,302.043568 215.404938,302.518925 215.879321,302.518925 C217.776851,305.846427 221.097528,308.223214 224.892588,308.223214 C226.315735,308.223214 227.2645,307.747857 228.687648,307.272499 C230.585178,306.321785 232.482708,304.420355 232.95709,302.043568 C233.431473,299.666781 233.431473,297.289994 232.482708,294.913207 C232.482708,294.437849 232.008325,294.437849 232.008325,294.437849 C232.008325,293.962492 231.533943,293.487135 231.05956,293.011777 C230.110795,291.110348 229.16203,289.684275 227.738883,288.258203 C227.2645,287.307488 226.790118,286.832131 225.841353,285.881416 L225.841353,284.930701 C222.520675,280.652485 220.148763,275.898911 218.251233,271.145337 C217.776851,269.719264 217.776851,267.817835 218.725616,266.391762 C218.725616,265.916405 219.199998,265.916405 219.199998,265.916405 L217.776851,262.113546 C241.970358,247.377466 260.471275,224.560311 269.010159,197.464939 L272.805219,197.940296 C273.279602,197.940296 273.279602,197.464939 273.279602,197.464939 C274.228367,196.514224 275.651514,196.038866 277.074662,196.038866 L277.549044,196.038866 C282.767252,196.989581 287.985459,198.415653 292.729284,200.317083 L293.203666,200.317083 C294.152431,200.79244 295.101196,201.267798 296.049961,201.267798 C297.947491,202.218513 299.370639,203.169227 301.268169,203.644585 C301.742551,203.644585 302.216934,204.119942 303.165699,204.119942 C303.640081,204.119942 303.640081,204.119942 304.114464,204.5953 C305.063229,205.070657 305.537611,205.070657 306.486376,205.070657 C310.755819,205.070657 314.550879,202.218513 315.974026,198.415653 C315.499643,193.186722 311.704584,189.383863 307.435141,188.433148 Z M170.338602,173.697068 L157.530274,179.876714 L144.721947,173.697068 L141.40127,159.911703 L150.414537,148.503126 L164.646012,148.503126 L173.659279,159.911703 L170.338602,173.697068 Z M247.662947,142.798837 C250.03486,152.781342 250.509242,162.763848 249.560477,172.746353 L204.494141,159.911703 C200.224698,158.960989 197.852786,154.682772 198.801551,150.404555 C199.275933,148.978483 199.750316,148.027768 200.699081,147.077053 L236.277768,114.75275 C241.495975,123.309183 245.291035,132.816331 247.662947,142.798837 Z M222.046293,97.164526 L183.146929,124.735255 C179.826251,126.636685 175.082426,126.161328 172.710514,122.833826 C171.761749,121.883111 171.287367,120.932396 171.287367,119.506324 L168.441072,71.4952257 C189.313901,73.8720128 207.814818,82.9038035 222.046293,97.164526 Z M136.183062,72.921298 L145.670712,71.0198683 L143.2988,118.555609 C143.2988,122.833826 139.50374,126.161328 135.234297,126.161328 C133.81115,126.161328 132.862385,125.68597 131.439237,125.210613 L92.065491,97.164526 C104.399435,85.2805905 119.579675,76.7241572 136.183062,72.921298 Z M78.308398,114.75275 L113.412703,146.126339 C116.73338,148.978483 117.207763,153.732057 114.361468,157.059559 C113.412703,158.485631 112.463938,158.960989 110.566408,159.436346 L64.551306,172.746353 C63.128159,152.781342 67.871984,132.340974 78.308398,114.75275 Z M70.243896,195.088151 L117.207763,187.007076 C121.002823,187.007076 124.797883,189.383863 125.272265,193.186722 C125.746647,194.612794 125.746647,196.514224 124.797883,197.940296 L106.771348,241.673177 C90.167961,230.739957 76.885251,214.102448 70.243896,195.088151 Z M177.928721,254.03247 C171.287367,255.458542 164.646012,256.409257 157.530274,256.409257 C147.568242,256.409257 137.131827,254.507827 127.644177,251.655683 L150.888919,209.348874 C153.260832,206.496729 157.055892,205.546014 160.376569,207.447444 C161.799717,208.398159 162.748482,209.348874 164.171629,210.774946 L186.941989,252.13104 C184.095694,252.606398 181.249399,253.081755 177.928721,254.03247 Z M235.803385,212.676376 C228.687648,224.084953 218.725616,234.067459 207.340436,241.19782 L188.839519,196.514224 C187.890754,192.711364 189.788284,188.908505 193.108961,187.482433 C194.532109,187.007076 195.955256,186.531718 197.378403,186.531718 L244.816652,194.612794 C242.44474,201.267798 239.598445,207.447444 235.803385,212.676376 Z" id="Shape"></path>
        </g>
    </g>
</svg>
