<?xml version="1.0" encoding="UTF-8"?>
<svg width="37px" height="36px" viewBox="0 0 37 36" version="1.1" xmlns="http://www.w3.org/2000/svg" xmlns:xlink="http://www.w3.org/1999/xlink">
    <!-- Generator: Sketch 53.2 (72643) - https://sketchapp.com -->
    <title>wheels-02</title>
    <desc>Created with Sketch.</desc>
    <g id="wheels-02-outer" stroke="none" stroke-width="1" fill="none" fill-rule="evenodd">
        <g id="wheels-02-inner" transform="translate(18.000000, 18.000000) rotate(-5.000000) translate(-18.000000, -18.000000) " fill="#000000" fill-rule="nonzero">
            <path d="M25.2,35.17 L23.41,31.44 C19.926823,32.8296583 16.043177,32.8296583 12.56,31.44 L10.81,35.14 L9.07,34.31 L10.83,30.59 C7.68086908,28.7595202 5.35158651,25.7933524 4.32,22.3 L0.37,23.16 L0,21.31 L4,20.44 C3.89587497,19.741443 3.84240219,19.0362706 3.84,18.33 C3.83578062,15.3870712 4.75185439,12.5164737 6.46,10.12 L3.23,7.57 L4.45,6.07 L7.58,8.62 C10.0359376,5.98442295 13.4052289,4.3856191 17,4.15 L17,0.24 L19,0.24 L19,4.15 C22.5973229,4.40523654 25.9622381,6.02154015 28.41,8.67 L31.59,6.07 L32.81,7.57 L29.62,10.17 C31.3010593,12.5587846 32.20223,15.4089989 32.2,18.33 C32.1843486,19.0306093 32.1175039,19.7291373 32,20.42 L36,21.31 L35.58,23.19 L31.58,22.31 C30.5558723,25.7845229 28.2504554,28.7404606 25.13,30.58 L26.93,34.34 L25.2,35.17 Z M13.38,29.72 C16.3344601,30.875015 19.6155399,30.875015 22.57,29.72 L19.73,23.8 C18.5816062,24.1647887 17.3483938,24.1647887 16.2,23.8 L13.38,29.72 Z M6.21,21.91 C7.08581533,24.8406679 9.02633546,27.3376607 11.65,28.91 L14.5,22.91 C13.7070787,22.3000517 13.0923678,21.4884952 12.72,20.56 L6.21,21.91 Z M21.44,22.91 L24.3,28.85 C26.8930309,27.2803813 28.8158051,24.8092605 29.7,21.91 L23.28,20.51 C22.893022,21.4550392 22.2571476,22.2775289 21.44,22.89 L21.44,22.91 Z M18,14.59 C16.4742685,14.5900054 15.0989613,15.5096221 14.5160277,16.9196027 C13.9330941,18.3295832 14.2574764,19.951909 15.3377633,21.0293304 C16.4180502,22.1067519 18.0412318,22.426824 19.4496591,21.8401475 C20.8580864,21.2534711 21.774047,19.8757262 21.77,18.35 C21.7644875,16.2717928 20.0782145,14.5899927 18,14.59 L18,14.59 Z M7.86,11.34 C6.4298695,13.3937559 5.66536789,15.8373684 5.67,18.34 C5.67153346,18.8954437 5.71162987,19.4501107 5.79,20 L12.31,18.57 C12.3047866,18.4867482 12.3047866,18.4032518 12.31,18.32 C12.2990291,17.3559951 12.5366704,16.4054298 13,15.56 L7.86,11.34 Z M23.69,18.6 L30.11,20 C30.1904464,19.443625 30.230551,18.8821606 30.23,18.32 C30.2291157,15.8428561 29.4796947,13.4237949 28.08,11.38 L23,15.56 C23.4857925,16.4095372 23.7409036,17.371375 23.74,18.35 C23.7286672,18.4343119 23.7119666,18.5178149 23.69,18.6 L23.69,18.6 Z M9.08,9.85 L14.26,14.06 C15.0363625,13.3791101 15.9836572,12.9227491 17,12.74 L17,6.08 C13.9839152,6.31134276 11.1613275,7.65492301 9.08,9.85 Z M19,12.74 C20.0306374,12.9152967 20.9927452,13.3721248 21.78,14.06 L26.91,9.89 C24.8330657,7.6899879 22.0154598,6.33639721 19,6.09 L19,12.74 Z" id="Shape"></path>
        </g>
    </g>
</svg>
