<?xml version="1.0" encoding="UTF-8"?>
<svg width="40px" height="40px" viewBox="0 0 40 40" version="1.1" xmlns="http://www.w3.org/2000/svg" xmlns:xlink="http://www.w3.org/1999/xlink">
    <!-- Generator: Sketch 53.2 (72643) - https://sketchapp.com -->
    <title>wheels-03</title>
    <desc>Created with Sketch.</desc>
    <g id="wheels-03-outer" stroke="none" stroke-width="1" fill="none" fill-rule="evenodd">
        <g id="wheels-03-inner" transform="translate(20.500000, 19.000000) rotate(5.000000) translate(-20.500000, -19.000000) translate(1.000000, 0.000000)" stroke="#000000" stroke-width="3">
            <path d="M33.779,20.119 C33.779,28.081 27.325,34.535 19.363,34.535 C11.401,34.535 4.947,28.081 4.947,20.119 C4.947,12.157 11.401,5.702 19.363,5.702 C27.325,5.702 33.779,12.157 33.779,20.119 Z M24.567,20.15 C24.567,21.9904537 23.5851297,23.6911031 21.99125,24.61133 C20.3973704,25.5315568 18.4336296,25.5315568 16.83975,24.61133 C15.2458703,23.6911031 14.264,21.9904537 14.264,20.15 C14.264,17.3049051 16.5704051,14.9985 19.4155,14.9985 C22.2605949,14.9985 24.567,17.3049051 24.567,20.15 L24.567,20.15 Z M19.414,14.859 L19.414,0.435 L19.414,14.859 Z M3.999,7.598 L15.219,16.734 L3.999,7.598 Z M34.832,7.598 L23.613,16.734 L34.832,7.598 Z M38.833,24.393 L24.723,21.298 L38.833,24.393 Z M0,24.393 L14.11,21.298 L0,24.393 Z M28.2,38 L21.795,24.657 L28.2,38 Z M10.642,38 L16.946,24.657 L10.642,38 Z" id="Shape"></path>
        </g>
    </g>
</svg>
