<?xml version="1.0" encoding="UTF-8"?>
<svg width="49px" height="40px" viewBox="0 0 49 40" version="1.1" xmlns="http://www.w3.org/2000/svg" xmlns:xlink="http://www.w3.org/1999/xlink">
    <!-- Generator: Sketch 53.2 (72643) - https://sketchapp.com -->
    <title>community-icon-74da1d08</title>
    <desc>Created with Sketch.</desc>
    <g id="Page-1" stroke="none" stroke-width="1" fill="none" fill-rule="evenodd">
        <g id="community-icon-74da1d08" fill="#000000" fill-rule="nonzero">
            <path d="M23.97,0 L48.54,0 L48.54,20.55 L42.5,20.55 L42.5,26.53 L36.51,20.55 L19.24,20.55 L19.24,4.72 L23.97,0 Z M24.85,4.69 L24.85,6.19 L42.25,6.19 L42.25,4.69 L24.85,4.69 Z M24.85,8.92 L24.85,10.42 L29.63,10.42 L29.63,8.92 L24.85,8.92 Z M31.15,8.92 L31.15,10.42 L42.25,10.42 L42.25,8.92 L31.15,8.92 Z M31.76,13.15 L31.76,14.65 L42.25,14.65 L42.25,13.15 L31.76,13.15 Z"></path>
            <path d="M0,12.6 L24.57,12.6 L29.3,17.32 L29.3,28.42 L24.57,33.14 L12.03,33.14 L6.04,39.13 L6.04,33.14 L0,33.14 L0,12.6 Z M4.95,17.29 L4.95,18.79 L16.07,18.79 L16.07,17.29 L4.95,17.29 Z M4.95,21.51 L4.95,23.01 L24.35,23.01 L24.35,21.51 L4.95,21.51 Z M4.95,25.75 L4.95,27.25 L11.26,27.25 L11.26,25.75 L4.95,25.75 Z M12.78,25.75 L12.78,27.25 L19.09,27.25 L19.09,25.75 L12.78,25.75 Z"></path>
        </g>
    </g>
</svg>
