<?xml version="1.0" encoding="UTF-8"?>
<svg width="88px" height="77px" viewBox="0 0 88 77" version="1.1" xmlns="http://www.w3.org/2000/svg" xmlns:xlink="http://www.w3.org/1999/xlink">
    <!-- Generator: Sketch 53.2 (72643) - https://sketchapp.com -->
    <title>crabs-01</title>
    <desc>Created with Sketch.</desc>
    <g id="crabs-01-outer" stroke="none" stroke-width="1" fill="none" fill-rule="evenodd">
        <g id="crabs-01-innner" transform="translate(-905.000000, -161.000000)" stroke="#000000" stroke-width="2">
            <path d="M906,237.673 L906,226.173 L919,221.173 M919,221.173 C918.667,216.169 919,205.673 919,205.673 M919,221.173 C919,221.173 919,231.173 948,231.173 C977,231.173 977.5,221.173 977.5,221.173 M977.5,221.173 L977.5,205.673 M977.5,221.173 L990.5,226.173 L991.5,237.673 M977.5,205.673 L989.5,200.173 M977.5,205.673 C977.5,205.673 977.079,201.253 969,198.149 M919,205.673 L907,200.173 M919,205.673 C919,205.673 919.225,200.94 928,197.829 M938.5,186.673 L941,195.41 M941,195.41 C943.122,195.257 945.449,195.173 948,195.173 C950.952,195.173 953.609,195.286 956,195.488 M941,195.41 C935.332,195.82 931.124,196.721 928,197.829 M958,186.673 L956,195.488 M956,195.488 C961.717,195.971 965.916,196.964 969,198.149 M969,198.149 C969,198.149 991.5,181.673 982.5,168.673 C973.5,155.673 960,165.673 960,165.673 L979.5,184.673 M969,198.149 C969,198.149 972.5,194.673 975,191.673 C977.5,188.673 979.5,184.673 979.5,184.673 M979.5,184.673 C979.5,184.673 970,187.173 966.5,183.173 C963,179.173 964.5,170.423 964.5,170.423 M928,197.829 C928,197.829 904.5,177.673 915.5,167.673 C926.5,157.673 936.5,165.673 936.5,165.673 L918.5,184.673 M928,197.829 C928,197.829 924,193.649 922.5,191.411 C921,189.173 918.5,184.673 918.5,184.673 M918.5,184.673 C918.5,184.673 923,188.173 929,184.173 C935,180.173 932.125,170.423 932.125,170.423" id="Shape"></path>
        </g>
    </g>
</svg>
