<?xml version="1.0" encoding="UTF-8"?>
<svg width="31px" height="52px" viewBox="0 0 31 52" version="1.1" xmlns="http://www.w3.org/2000/svg" xmlns:xlink="http://www.w3.org/1999/xlink">
    <!-- Generator: Sketch 53.2 (72643) - https://sketchapp.com -->
    <title>Shape</title>
    <desc>Created with Sketch.</desc>
    <g id="Page-1" stroke="none" stroke-width="1" fill="none" fill-rule="evenodd">
        <g id="dns-bottom" transform="translate(0.000000, -185.000000)" fill="#000000" fill-rule="nonzero">
            <path d="M17.08,193.5 C17.08,192.948 16.6323,192.5 16.08,192.5 C15.5277,192.5 15.08,192.948 15.08,193.5 L17.08,193.5 Z M2.07954,186.03 C2.09627,185.478 1.66232,185.017 1.11029,185 C0.558258,184.984 0.097187,185.418 0.0804588,185.97 L2.07954,186.03 Z M30.08,211.5 C30.08,210.948 29.6323,210.5 29.08,210.5 C28.5277,210.5 28.08,210.948 28.08,211.5 L30.08,211.5 Z M15.08,193.5 L15.08,220 L17.08,220 L17.08,193.5 L15.08,193.5 Z M15.08,220 L15.08,237 L17.08,237 L17.08,220 L15.08,220 Z M16.08,220 C16.7232,219.234 16.7232,219.234 16.7231,219.234 C16.723,219.234 16.7229,219.234 16.7228,219.234 C16.7225,219.234 16.7219,219.233 16.7212,219.233 C16.7198,219.231 16.7177,219.23 16.7148,219.227 C16.709,219.222 16.7002,219.215 16.6886,219.205 C16.6653,219.186 16.6306,219.156 16.5851,219.118 C16.4941,219.041 16.3601,218.927 16.1888,218.781 C15.8462,218.489 15.3544,218.067 14.7595,217.55 C13.5691,216.515 11.9678,215.1 10.3214,213.578 C8.67273,212.054 6.9894,210.432 5.63021,208.981 C4.95035,208.255 4.36091,207.581 3.90064,206.991 C3.43001,206.388 3.13485,205.923 2.99915,205.606 L1.16086,206.394 C1.40015,206.952 1.82374,207.581 2.32381,208.222 C2.83425,208.876 3.46746,209.597 4.17041,210.348 C5.57685,211.849 7.29977,213.508 8.96364,215.047 C10.6297,216.587 12.2472,218.016 13.4474,219.059 C14.0477,219.581 14.5443,220.007 14.8911,220.303 C15.0645,220.451 15.2005,220.566 15.2934,220.645 C15.3398,220.684 15.3755,220.714 15.3996,220.734 C15.4117,220.745 15.4209,220.752 15.4271,220.758 C15.4302,220.76 15.4326,220.762 15.4342,220.764 C15.435,220.764 15.4356,220.765 15.4361,220.765 C15.4363,220.765 15.4365,220.765 15.4366,220.766 C15.4367,220.766 15.4368,220.766 16.08,220 Z M2.99915,205.606 C2.86028,205.282 2.71937,204.738 2.59299,203.973 C2.46927,203.224 2.3685,202.322 2.28772,201.318 C2.12622,199.311 2.04852,196.945 2.01741,194.674 C1.98633,192.405 2.00186,190.243 2.02521,188.647 C2.03688,187.85 2.05049,187.195 2.06117,186.739 C2.06651,186.512 2.07112,186.334 2.07438,186.213 C2.07602,186.153 2.07731,186.107 2.0782,186.076 C2.07864,186.061 2.07898,186.049 2.07921,186.041 C2.07932,186.038 2.07941,186.035 2.07946,186.033 C2.07949,186.032 2.07951,186.031 2.07952,186.031 C2.07953,186.031 2.07954,186.03 2.07954,186.03 C2.07954,186.03 2.07954,186.03 1.08,186 C0.0804588,185.97 0.0804555,185.97 0.0804502,185.97 C0.080446,185.97 0.0804388,185.97 0.0804303,185.971 C0.0804133,185.971 0.0803888,185.972 0.0803569,185.973 C0.0802933,185.975 0.0802002,185.978 0.0800791,185.982 C0.0798368,185.991 0.079482,186.003 0.0790241,186.019 C0.0781085,186.051 0.0767808,186.098 0.0751175,186.159 C0.0717909,186.282 0.0671214,186.462 0.0617202,186.692 C0.0509187,187.153 0.0371869,187.814 0.0254196,188.618 C0.00189425,190.226 -0.0138254,192.408 0.0175938,194.701 C0.0489754,196.992 0.127532,199.408 0.294159,201.479 C0.377442,202.514 0.483695,203.475 0.619742,204.299 C0.753134,205.106 0.924718,205.843 1.16086,206.394 L2.99915,205.606 Z M28.08,211.5 L28.08,237 L30.08,237 L30.08,211.5 L28.08,211.5 Z" id="Shape"></path>
        </g>
    </g>
</svg>