<?xml version="1.0" encoding="UTF-8"?>
<svg width="36px" height="82px" viewBox="0 0 36 82" version="1.1" xmlns="http://www.w3.org/2000/svg" xmlns:xlink="http://www.w3.org/1999/xlink">
    <!-- Generator: Sketch 53.2 (72643) - https://sketchapp.com -->
    <title>plants-02</title>
    <desc>Created with Sketch.</desc>
    <g id="plants-02-outer" stroke="none" stroke-width="1" fill="none" fill-rule="evenodd">
        <g id="plants-02-inner" transform="translate(-233.000000, -156.000000)" fill="#000000" fill-rule="nonzero">
            <path d="M251.58,157 C251.58,156.448 251.132,156 250.58,156 C250.028,156 249.58,156.448 249.58,157 L251.58,157 Z M236.065,171.175 C236.161,170.631 235.799,170.112 235.255,170.015 C234.711,169.919 234.192,170.281 234.095,170.825 L236.065,171.175 Z M267.529,193.684 C267.354,193.16 266.788,192.877 266.264,193.051 C265.74,193.226 265.457,193.792 265.631,194.316 L267.529,193.684 Z M238.08,209.5 C238.08,208.948 237.632,208.5 237.08,208.5 C236.528,208.5 236.08,208.948 236.08,209.5 L238.08,209.5 Z M236.08,219 C236.08,219.552 236.528,220 237.08,220 C237.632,220 238.08,219.552 238.08,219 L236.08,219 Z M238.08,229.5 C238.08,228.948 237.632,228.5 237.08,228.5 C236.528,228.5 236.08,228.948 236.08,229.5 L238.08,229.5 Z M251.58,204 L251.58,157 L249.58,157 L249.58,204 L251.58,204 Z M251.58,237.5 L251.58,225 L249.58,225 L249.58,237.5 L251.58,237.5 Z M251.58,225 L251.58,204 L249.58,204 L249.58,225 L251.58,225 Z M250.58,225 C251.135,225.832 251.135,225.832 251.135,225.832 C251.135,225.832 251.135,225.832 251.136,225.831 C251.136,225.831 251.137,225.831 251.138,225.83 C251.14,225.829 251.143,225.827 251.146,225.824 C251.154,225.819 251.165,225.812 251.179,225.802 C251.208,225.783 251.251,225.754 251.306,225.717 C251.418,225.642 251.58,225.533 251.788,225.392 C252.202,225.111 252.795,224.707 253.509,224.213 C254.936,223.225 256.852,221.874 258.801,220.428 C260.747,218.984 262.741,217.434 264.318,216.048 C265.106,215.356 265.806,214.691 266.348,214.09 C266.862,213.52 267.333,212.904 267.529,212.316 L265.631,211.684 C265.577,211.846 265.36,212.199 264.863,212.75 C264.393,213.27 263.757,213.879 262.998,214.546 C261.482,215.878 259.538,217.391 257.609,218.822 C255.683,220.251 253.787,221.588 252.37,222.568 C251.662,223.058 251.075,223.459 250.665,223.737 C250.461,223.875 250.3,223.984 250.191,224.057 C250.137,224.094 250.095,224.121 250.067,224.14 C250.053,224.149 250.042,224.157 250.035,224.161 C250.032,224.163 250.029,224.165 250.028,224.166 C250.027,224.167 250.026,224.167 250.026,224.168 C250.026,224.168 250.025,224.168 250.025,224.168 C250.025,224.168 250.025,224.168 250.58,225 Z M267.529,212.316 C267.821,211.438 268.014,210.016 268.139,208.422 C268.267,206.797 268.33,204.895 268.33,203 C268.33,201.105 268.267,199.203 268.139,197.578 C268.014,195.984 267.821,194.562 267.529,193.684 L265.631,194.316 C265.839,194.938 266.021,196.141 266.146,197.734 C266.268,199.297 266.33,201.145 266.33,203 C266.33,204.855 266.268,206.703 266.146,208.266 C266.021,209.859 265.839,211.062 265.631,211.684 L267.529,212.316 Z M250.58,204 C251.175,203.196 251.175,203.196 251.175,203.196 C251.175,203.196 251.175,203.196 251.175,203.196 C251.174,203.196 251.174,203.195 251.173,203.195 C251.172,203.194 251.169,203.192 251.166,203.19 C251.16,203.185 251.151,203.178 251.138,203.169 C251.113,203.15 251.076,203.122 251.027,203.086 C250.929,203.013 250.785,202.905 250.601,202.765 C250.232,202.487 249.704,202.085 249.067,201.592 C247.792,200.605 246.085,199.254 244.348,197.797 C242.608,196.336 240.854,194.781 239.48,193.385 C238.793,192.686 238.215,192.041 237.785,191.478 C237.339,190.894 237.113,190.477 237.042,190.225 L235.118,190.775 C235.297,191.398 235.712,192.059 236.196,192.692 C236.695,193.346 237.336,194.056 238.055,194.787 C239.493,196.25 241.302,197.851 243.062,199.328 C244.825,200.808 246.555,202.176 247.843,203.173 C248.487,203.672 249.021,204.079 249.395,204.361 C249.582,204.503 249.729,204.613 249.829,204.688 C249.88,204.725 249.918,204.754 249.944,204.773 C249.957,204.783 249.967,204.791 249.974,204.796 C249.978,204.798 249.98,204.8 249.982,204.801 C249.983,204.802 249.983,204.803 249.984,204.803 C249.984,204.803 249.984,204.803 249.985,204.803 C249.985,204.803 249.985,204.804 250.58,204 Z M237.042,190.225 C236.578,188.601 236.17,184.734 235.965,180.73 C235.76,176.727 235.769,172.838 236.065,171.175 L234.095,170.825 C233.754,172.746 233.764,176.857 233.968,180.833 C234.171,184.808 234.582,188.899 235.118,190.775 L237.042,190.225 Z M236.08,209.5 C236.08,209.507 236.08,209.514 236.08,209.522 C236.08,209.529 236.08,209.536 236.08,209.543 C236.08,209.551 236.08,209.558 236.08,209.565 C236.08,209.572 236.08,209.579 236.08,209.587 C236.08,209.594 236.08,209.601 236.08,209.608 C236.08,209.615 236.08,209.623 236.08,209.63 C236.08,209.637 236.08,209.644 236.08,209.651 C236.08,209.658 236.08,209.666 236.08,209.673 C236.08,209.68 236.08,209.687 236.08,209.694 C236.08,209.701 236.08,209.708 236.08,209.716 C236.08,209.723 236.08,209.73 236.08,209.737 C236.08,209.744 236.08,209.751 236.08,209.758 C236.08,209.765 236.08,209.772 236.08,209.779 C236.08,209.787 236.08,209.794 236.08,209.801 C236.08,209.808 236.08,209.815 236.08,209.822 C236.08,209.829 236.08,209.836 236.08,209.843 C236.08,209.85 236.08,209.857 236.08,209.864 C236.08,209.871 236.08,209.878 236.08,209.885 C236.08,209.892 236.08,209.899 236.08,209.906 C236.08,209.913 236.08,209.92 236.08,209.927 C236.08,209.935 236.08,209.942 236.08,209.949 C236.08,209.955 236.08,209.962 236.08,209.969 C236.08,209.976 236.08,209.983 236.08,209.99 C236.08,209.997 236.08,210.004 236.08,210.011 C236.08,210.018 236.08,210.025 236.08,210.032 C236.08,210.039 236.08,210.046 236.08,210.053 C236.08,210.06 236.08,210.067 236.08,210.074 C236.08,210.081 236.08,210.088 236.08,210.095 C236.08,210.101 236.08,210.108 236.08,210.115 C236.08,210.122 236.08,210.129 236.08,210.136 C236.08,210.143 236.08,210.15 236.08,210.157 C236.08,210.164 236.08,210.17 236.08,210.177 C236.08,210.184 236.08,210.191 236.08,210.198 C236.08,210.205 236.08,210.212 236.08,210.218 C236.08,210.225 236.08,210.232 236.08,210.239 C236.08,210.246 236.08,210.253 236.08,210.26 C236.08,210.266 236.08,210.273 236.08,210.28 C236.08,210.287 236.08,210.294 236.08,210.3 C236.08,210.307 236.08,210.314 236.08,210.321 C236.08,210.328 236.08,210.334 236.08,210.341 C236.08,210.348 236.08,210.355 236.08,210.362 C236.08,210.368 236.08,210.375 236.08,210.382 C236.08,210.389 236.08,210.395 236.08,210.402 C236.08,210.409 236.08,210.416 236.08,210.422 C236.08,210.429 236.08,210.436 236.08,210.443 C236.08,210.449 236.08,210.456 236.08,210.463 C236.08,210.47 236.08,210.476 236.08,210.483 C236.08,210.49 236.08,210.496 236.08,210.503 C236.08,210.51 236.08,210.517 236.08,210.523 C236.08,210.53 236.08,210.537 236.08,210.543 C236.08,210.55 236.08,210.557 236.08,210.563 C236.08,210.57 236.08,210.577 236.08,210.583 C236.08,210.59 236.08,210.597 236.08,210.603 C236.08,210.61 236.08,210.617 236.08,210.623 C236.08,210.63 236.08,210.637 236.08,210.643 C236.08,210.65 236.08,210.656 236.08,210.663 C236.08,210.67 236.08,210.676 236.08,210.683 C236.08,210.69 236.08,210.696 236.08,210.703 C236.08,210.709 236.08,210.716 236.08,210.723 C236.08,210.729 236.08,210.736 236.08,210.742 C236.08,210.749 236.08,210.756 236.08,210.762 C236.08,210.769 236.08,210.775 236.08,210.782 C236.08,210.788 236.08,210.795 236.08,210.802 C236.08,210.808 236.08,210.815 236.08,210.821 C236.08,210.828 236.08,210.834 236.08,210.841 C236.08,210.847 236.08,210.854 236.08,210.86 C236.08,210.867 236.08,210.874 236.08,210.88 C236.08,210.887 236.08,210.893 236.08,210.9 C236.08,210.906 236.08,210.913 236.08,210.919 C236.08,210.926 236.08,210.932 236.08,210.939 C236.08,210.945 236.08,210.952 236.08,210.958 C236.08,210.965 236.08,210.971 236.08,210.978 C236.08,210.984 236.08,210.99 236.08,210.997 C236.08,211.003 236.08,211.01 236.08,211.016 C236.08,211.023 236.08,211.029 236.08,211.036 C236.08,211.042 236.08,211.049 236.08,211.055 C236.08,211.061 236.08,211.068 236.08,211.074 C236.08,211.081 236.08,211.087 236.08,211.094 C236.08,211.1 236.08,211.106 236.08,211.113 C236.08,211.119 236.08,211.126 236.08,211.132 C236.08,211.139 236.08,211.145 236.08,211.151 C236.08,211.158 236.08,211.164 236.08,211.17 C236.08,211.177 236.08,211.183 236.08,211.19 C236.08,211.196 236.08,211.202 236.08,211.209 C236.08,211.215 236.08,211.222 236.08,211.228 C236.08,211.234 236.08,211.241 236.08,211.247 C236.08,211.253 236.08,211.26 236.08,211.266 C236.08,211.272 236.08,211.279 236.08,211.285 C236.08,211.291 236.08,211.298 236.08,211.304 C236.08,211.31 236.08,211.317 236.08,211.323 C236.08,211.329 236.08,211.336 236.08,211.342 C236.08,211.348 236.08,211.355 236.08,211.361 C236.08,211.367 236.08,211.374 236.08,211.38 C236.08,211.386 236.08,211.392 236.08,211.399 C236.08,211.405 236.08,211.411 236.08,211.418 C236.08,211.424 236.08,211.43 236.08,211.436 C236.08,211.443 236.08,211.449 236.08,211.455 C236.08,211.462 236.08,211.468 236.08,211.474 C236.08,211.48 236.08,211.487 236.08,211.493 C236.08,211.499 236.08,211.505 236.08,211.512 C236.08,211.518 236.08,211.524 236.08,211.53 C236.08,211.537 236.08,211.543 236.08,211.549 C236.08,211.555 236.08,211.561 236.08,211.568 C236.08,211.574 236.08,211.58 236.08,211.586 C236.08,211.593 236.08,211.599 236.08,211.605 C236.08,211.611 236.08,211.617 236.08,211.624 C236.08,211.63 236.08,211.636 236.08,211.642 C236.08,211.648 236.08,211.655 236.08,211.661 C236.08,211.667 236.08,211.673 236.08,211.679 C236.08,211.685 236.08,211.692 236.08,211.698 C236.08,211.704 236.08,211.71 236.08,211.716 C236.08,211.722 236.08,211.729 236.08,211.735 C236.08,211.741 236.08,211.747 236.08,211.753 C236.08,211.759 236.08,211.766 236.08,211.772 C236.08,211.778 236.08,211.784 236.08,211.79 C236.08,211.796 236.08,211.802 236.08,211.809 C236.08,211.815 236.08,211.821 236.08,211.827 C236.08,211.833 236.08,211.839 236.08,211.845 C236.08,211.851 236.08,211.858 236.08,211.864 C236.08,211.87 236.08,211.876 236.08,211.882 C236.08,211.888 236.08,211.894 236.08,211.9 C236.08,211.906 236.08,211.912 236.08,211.919 C236.08,211.925 236.08,211.931 236.08,211.937 C236.08,211.943 236.08,211.949 236.08,211.955 C236.08,211.961 236.08,211.967 236.08,211.973 C236.08,211.979 236.08,211.985 236.08,211.991 C236.08,211.998 236.08,212.004 236.08,212.01 C236.08,212.016 236.08,212.022 236.08,212.028 C236.08,212.034 236.08,212.04 236.08,212.046 C236.08,212.052 236.08,212.058 236.08,212.064 C236.08,212.07 236.08,212.076 236.08,212.082 C236.08,212.088 236.08,212.094 236.08,212.1 C236.08,212.106 236.08,212.112 236.08,212.118 C236.08,212.124 236.08,212.13 236.08,212.136 C236.08,212.142 236.08,212.148 236.08,212.154 C236.08,212.16 236.08,212.166 236.08,212.172 C236.08,212.178 236.08,212.184 236.08,212.19 C236.08,212.196 236.08,212.202 236.08,212.208 C236.08,212.214 236.08,212.22 236.08,212.226 C236.08,212.232 236.08,212.238 236.08,212.244 C236.08,212.25 236.08,212.256 236.08,212.262 C236.08,212.268 236.08,212.274 236.08,212.28 C236.08,212.286 236.08,212.292 236.08,212.298 C236.08,212.304 236.08,212.31 236.08,212.316 C236.08,212.322 236.08,212.328 236.08,212.334 C236.08,212.34 236.08,212.346 236.08,212.352 C236.08,212.358 236.08,212.364 236.08,212.37 C236.08,212.376 236.08,212.381 236.08,212.387 C236.08,212.393 236.08,212.399 236.08,212.405 C236.08,212.411 236.08,212.417 236.08,212.423 C236.08,212.429 236.08,212.435 236.08,212.441 C236.08,212.447 236.08,212.453 236.08,212.459 C236.08,212.464 236.08,212.47 236.08,212.476 C236.08,212.482 236.08,212.488 236.08,212.494 C236.08,212.5 236.08,212.506 236.08,212.512 C236.08,212.518 236.08,212.524 236.08,212.529 C236.08,212.535 236.08,212.541 236.08,212.547 C236.08,212.553 236.08,212.559 236.08,212.565 C236.08,212.571 236.08,212.577 236.08,212.582 C236.08,212.588 236.08,212.594 236.08,212.6 C236.08,212.606 236.08,212.612 236.08,212.618 C236.08,212.624 236.08,212.629 236.08,212.635 C236.08,212.641 236.08,212.647 236.08,212.653 C236.08,212.659 236.08,212.665 236.08,212.67 C236.08,212.676 236.08,212.682 236.08,212.688 C236.08,212.694 236.08,212.7 236.08,212.706 C236.08,212.711 236.08,212.717 236.08,212.723 C236.08,212.729 236.08,212.735 236.08,212.741 C236.08,212.747 236.08,212.752 236.08,212.758 C236.08,212.764 236.08,212.77 236.08,212.776 C236.08,212.782 236.08,212.787 236.08,212.793 C236.08,212.799 236.08,212.805 236.08,212.811 C236.08,212.817 236.08,212.822 236.08,212.828 C236.08,212.834 236.08,212.84 236.08,212.846 C236.08,212.851 236.08,212.857 236.08,212.863 C236.08,212.869 236.08,212.875 236.08,212.881 C236.08,212.886 236.08,212.892 236.08,212.898 C236.08,212.904 236.08,212.91 236.08,212.915 C236.08,212.921 236.08,212.927 236.08,212.933 C236.08,212.939 236.08,212.944 236.08,212.95 C236.08,212.956 236.08,212.962 236.08,212.968 C236.08,212.973 236.08,212.979 236.08,212.985 C236.08,212.991 236.08,212.996 236.08,213.002 C236.08,213.008 236.08,213.014 236.08,213.02 C236.08,213.025 236.08,213.031 236.08,213.037 C236.08,213.043 236.08,213.048 236.08,213.054 C236.08,213.06 236.08,213.066 236.08,213.072 C236.08,213.077 236.08,213.083 236.08,213.089 C236.08,213.095 236.08,213.1 236.08,213.106 C236.08,213.112 236.08,213.118 236.08,213.123 C236.08,213.129 236.08,213.135 236.08,213.141 C236.08,213.146 236.08,213.152 236.08,213.158 C236.08,213.164 236.08,213.17 236.08,213.175 C236.08,213.181 236.08,213.187 236.08,213.193 C236.08,213.198 236.08,213.204 236.08,213.21 C236.08,213.215 236.08,213.221 236.08,213.227 C236.08,213.233 236.08,213.238 236.08,213.244 C236.08,213.25 236.08,213.256 236.08,213.261 C236.08,213.267 236.08,213.273 236.08,213.279 C236.08,213.284 236.08,213.29 236.08,213.296 C236.08,213.302 236.08,213.307 236.08,213.313 C236.08,213.319 236.08,213.324 236.08,213.33 C236.08,213.336 236.08,213.342 236.08,213.347 C236.08,213.353 236.08,213.359 236.08,213.365 C236.08,213.37 236.08,213.376 236.08,213.382 C236.08,213.387 236.08,213.393 236.08,213.399 C236.08,213.405 236.08,213.41 236.08,213.416 C236.08,213.422 236.08,213.427 236.08,213.433 C236.08,213.439 236.08,213.445 236.08,213.45 C236.08,213.456 236.08,213.462 236.08,213.467 C236.08,213.473 236.08,213.479 236.08,213.484 C236.08,213.49 236.08,213.496 236.08,213.502 C236.08,213.507 236.08,213.513 236.08,213.519 C236.08,213.524 236.08,213.53 236.08,213.536 C236.08,213.541 236.08,213.547 236.08,213.553 C236.08,213.559 236.08,213.564 236.08,213.57 C236.08,213.576 236.08,213.581 236.08,213.587 C236.08,213.593 236.08,213.598 236.08,213.604 C236.08,213.61 236.08,213.615 236.08,213.621 C236.08,213.627 236.08,213.633 236.08,213.638 C236.08,213.644 236.08,213.65 236.08,213.655 C236.08,213.661 236.08,213.667 236.08,213.672 C236.08,213.678 236.08,213.684 236.08,213.689 C236.08,213.695 236.08,213.701 236.08,213.706 C236.08,213.712 236.08,213.718 236.08,213.723 C236.08,213.729 236.08,213.735 236.08,213.74 C236.08,213.746 236.08,213.752 236.08,213.757 C236.08,213.763 236.08,213.769 236.08,213.775 C236.08,213.78 236.08,213.786 236.08,213.792 C236.08,213.797 236.08,213.803 236.08,213.809 C236.08,213.814 236.08,213.82 236.08,213.826 C236.08,213.831 236.08,213.837 236.08,213.843 C236.08,213.848 236.08,213.854 236.08,213.86 C236.08,213.865 236.08,213.871 236.08,213.877 C236.08,213.882 236.08,213.888 236.08,213.894 C236.08,213.899 236.08,213.905 236.08,213.911 C236.08,213.916 236.08,213.922 236.08,213.928 C236.08,213.933 236.08,213.939 236.08,213.945 C236.08,213.95 236.08,213.956 236.08,213.962 C236.08,213.967 236.08,213.973 236.08,213.978 C236.08,213.984 236.08,213.99 236.08,213.995 C236.08,214.001 236.08,214.007 236.08,214.012 C236.08,214.018 236.08,214.024 236.08,214.029 C236.08,214.035 236.08,214.041 236.08,214.046 C236.08,214.052 236.08,214.058 236.08,214.063 C236.08,214.069 236.08,214.075 236.08,214.08 C236.08,214.086 236.08,214.092 236.08,214.097 C236.08,214.103 236.08,214.109 236.08,214.114 C236.08,214.12 236.08,214.126 236.08,214.131 C236.08,214.137 236.08,214.143 236.08,214.148 C236.08,214.154 236.08,214.16 236.08,214.165 C236.08,214.171 236.08,214.176 236.08,214.182 C236.08,214.188 236.08,214.193 236.08,214.199 C236.08,214.205 236.08,214.21 236.08,214.216 C236.08,214.222 236.08,214.227 236.08,214.233 C236.08,214.239 236.08,214.244 236.08,214.25 C236.08,214.256 236.08,214.261 236.08,214.267 C236.08,214.273 236.08,214.278 236.08,214.284 C236.08,214.29 236.08,214.295 236.08,214.301 C236.08,214.307 236.08,214.312 236.08,214.318 C236.08,214.324 236.08,214.329 236.08,214.335 C236.08,214.34 236.08,214.346 236.08,214.352 C236.08,214.357 236.08,214.363 236.08,214.369 C236.08,214.374 236.08,214.38 236.08,214.386 C236.08,214.391 236.08,214.397 236.08,214.403 C236.08,214.408 236.08,214.414 236.08,214.42 C236.08,214.425 236.08,214.431 236.08,214.437 C236.08,214.442 236.08,214.448 236.08,214.454 C236.08,214.459 236.08,214.465 236.08,214.471 C236.08,214.476 236.08,214.482 236.08,214.488 C236.08,214.493 236.08,214.499 236.08,214.505 C236.08,214.51 236.08,214.516 236.08,214.522 C236.08,214.527 236.08,214.533 236.08,214.538 C236.08,214.544 236.08,214.55 236.08,214.555 C236.08,214.561 236.08,214.567 236.08,214.572 C236.08,214.578 236.08,214.584 236.08,214.589 C236.08,214.595 236.08,214.601 236.08,214.606 C236.08,214.612 236.08,214.618 236.08,214.623 C236.08,214.629 236.08,214.635 236.08,214.64 C236.08,214.646 236.08,214.652 236.08,214.657 C236.08,214.663 236.08,214.669 236.08,214.674 C236.08,214.68 236.08,214.686 236.08,214.691 C236.08,214.697 236.08,214.703 236.08,214.708 C236.08,214.714 236.08,214.72 236.08,214.725 C236.08,214.731 236.08,214.737 236.08,214.743 C236.08,214.748 236.08,214.754 236.08,214.76 C236.08,214.765 236.08,214.771 236.08,214.777 C236.08,214.782 236.08,214.788 236.08,214.794 C236.08,214.799 236.08,214.805 236.08,214.811 C236.08,214.816 236.08,214.822 236.08,214.828 C236.08,214.833 236.08,214.839 236.08,214.845 C236.08,214.85 236.08,214.856 236.08,214.862 C236.08,214.867 236.08,214.873 236.08,214.879 C236.08,214.885 236.08,214.89 236.08,214.896 C236.08,214.902 236.08,214.907 236.08,214.913 C236.08,214.919 236.08,214.924 236.08,214.93 C236.08,214.936 236.08,214.941 236.08,214.947 C236.08,214.953 236.08,214.959 236.08,214.964 C236.08,214.97 236.08,214.976 236.08,214.981 C236.08,214.987 236.08,214.993 236.08,214.998 C236.08,215.004 236.08,215.01 236.08,215.016 C236.08,215.021 236.08,215.027 236.08,215.033 C236.08,215.038 236.08,215.044 236.08,215.05 C236.08,215.055 236.08,215.061 236.08,215.067 C236.08,215.073 236.08,215.078 236.08,215.084 C236.08,215.09 236.08,215.095 236.08,215.101 C236.08,215.107 236.08,215.113 236.08,215.118 C236.08,215.124 236.08,215.13 236.08,215.135 C236.08,215.141 236.08,215.147 236.08,215.153 C236.08,215.158 236.08,215.164 236.08,215.17 C236.08,215.176 236.08,215.181 236.08,215.187 C236.08,215.193 236.08,215.198 236.08,215.204 C236.08,215.21 236.08,215.216 236.08,215.221 C236.08,215.227 236.08,215.233 236.08,215.239 C236.08,215.244 236.08,215.25 236.08,215.256 C236.08,215.262 236.08,215.267 236.08,215.273 C236.08,215.279 236.08,215.285 236.08,215.29 C236.08,215.296 236.08,215.302 236.08,215.307 C236.08,215.313 236.08,215.319 236.08,215.325 C236.08,215.33 236.08,215.336 236.08,215.342 C236.08,215.348 236.08,215.354 236.08,215.359 C236.08,215.365 236.08,215.371 236.08,215.377 C236.08,215.382 236.08,215.388 236.08,215.394 C236.08,215.4 236.08,215.405 236.08,215.411 C236.08,215.417 236.08,215.423 236.08,215.428 C236.08,215.434 236.08,215.44 236.08,215.446 C236.08,215.452 236.08,215.457 236.08,215.463 C236.08,215.469 236.08,215.475 236.08,215.48 C236.08,215.486 236.08,215.492 236.08,215.498 C236.08,215.504 236.08,215.509 236.08,215.515 C236.08,215.521 236.08,215.527 236.08,215.532 C236.08,215.538 236.08,215.544 236.08,215.55 C236.08,215.556 236.08,215.561 236.08,215.567 C236.08,215.573 236.08,215.579 236.08,215.585 C236.08,215.59 236.08,215.596 236.08,215.602 C236.08,215.608 236.08,215.614 236.08,215.619 C236.08,215.625 236.08,215.631 236.08,215.637 C236.08,215.643 236.08,215.649 236.08,215.654 C236.08,215.66 236.08,215.666 236.08,215.672 C236.08,215.678 236.08,215.683 236.08,215.689 C236.08,215.695 236.08,215.701 236.08,215.707 C236.08,215.713 236.08,215.718 236.08,215.724 C236.08,215.73 236.08,215.736 236.08,215.742 C236.08,215.748 236.08,215.753 236.08,215.759 C236.08,215.765 236.08,215.771 236.08,215.777 C236.08,215.783 236.08,215.789 236.08,215.794 C236.08,215.8 236.08,215.806 236.08,215.812 C236.08,215.818 236.08,215.824 236.08,215.83 C236.08,215.835 236.08,215.841 236.08,215.847 C236.08,215.853 236.08,215.859 236.08,215.865 C236.08,215.871 236.08,215.876 236.08,215.882 C236.08,215.888 236.08,215.894 236.08,215.9 C236.08,215.906 236.08,215.912 236.08,215.918 C236.08,215.923 236.08,215.929 236.08,215.935 C236.08,215.941 236.08,215.947 236.08,215.953 C236.08,215.959 236.08,215.965 236.08,215.971 C236.08,215.976 236.08,215.982 236.08,215.988 C236.08,215.994 236.08,216 236.08,216.006 C236.08,216.012 236.08,216.018 236.08,216.024 C236.08,216.03 236.08,216.036 236.08,216.041 C236.08,216.047 236.08,216.053 236.08,216.059 C236.08,216.065 236.08,216.071 236.08,216.077 C236.08,216.083 236.08,216.089 236.08,216.095 C236.08,216.101 236.08,216.107 236.08,216.113 C236.08,216.119 236.08,216.124 236.08,216.13 C236.08,216.136 236.08,216.142 236.08,216.148 C236.08,216.154 236.08,216.16 236.08,216.166 C236.08,216.172 236.08,216.178 236.08,216.184 C236.08,216.19 236.08,216.196 236.08,216.202 C236.08,216.208 236.08,216.214 236.08,216.22 C236.08,216.226 236.08,216.232 236.08,216.238 C236.08,216.244 236.08,216.25 236.08,216.256 C236.08,216.262 236.08,216.268 236.08,216.274 C236.08,216.28 236.08,216.286 236.08,216.292 C236.08,216.298 236.08,216.304 236.08,216.31 C236.08,216.316 236.08,216.322 236.08,216.328 C236.08,216.334 236.08,216.34 236.08,216.346 C236.08,216.352 236.08,216.358 236.08,216.364 C236.08,216.37 236.08,216.376 236.08,216.382 C236.08,216.388 236.08,216.394 236.08,216.4 C236.08,216.406 236.08,216.412 236.08,216.418 C236.08,216.424 236.08,216.43 236.08,216.436 C236.08,216.442 236.08,216.448 236.08,216.454 C236.08,216.46 236.08,216.466 236.08,216.472 C236.08,216.478 236.08,216.484 236.08,216.49 C236.08,216.496 236.08,216.502 236.08,216.509 C236.08,216.515 236.08,216.521 236.08,216.527 C236.08,216.533 236.08,216.539 236.08,216.545 C236.08,216.551 236.08,216.557 236.08,216.563 C236.08,216.569 236.08,216.575 236.08,216.581 C236.08,216.588 236.08,216.594 236.08,216.6 C236.08,216.606 236.08,216.612 236.08,216.618 C236.08,216.624 236.08,216.63 236.08,216.636 C236.08,216.642 236.08,216.649 236.08,216.655 C236.08,216.661 236.08,216.667 236.08,216.673 C236.08,216.679 236.08,216.685 236.08,216.691 C236.08,216.698 236.08,216.704 236.08,216.71 C236.08,216.716 236.08,216.722 236.08,216.728 C236.08,216.734 236.08,216.741 236.08,216.747 C236.08,216.753 236.08,216.759 236.08,216.765 C236.08,216.771 236.08,216.778 236.08,216.784 C236.08,216.79 236.08,216.796 236.08,216.802 C236.08,216.808 236.08,216.815 236.08,216.821 C236.08,216.827 236.08,216.833 236.08,216.839 C236.08,216.845 236.08,216.852 236.08,216.858 C236.08,216.864 236.08,216.87 236.08,216.876 C236.08,216.883 236.08,216.889 236.08,216.895 C236.08,216.901 236.08,216.907 236.08,216.914 C236.08,216.92 236.08,216.926 236.08,216.932 C236.08,216.939 236.08,216.945 236.08,216.951 C236.08,216.957 236.08,216.963 236.08,216.97 C236.08,216.976 236.08,216.982 236.08,216.988 C236.08,216.995 236.08,217.001 236.08,217.007 C236.08,217.013 236.08,217.02 236.08,217.026 C236.08,217.032 236.08,217.038 236.08,217.045 C236.08,217.051 236.08,217.057 236.08,217.064 C236.08,217.07 236.08,217.076 236.08,217.082 C236.08,217.089 236.08,217.095 236.08,217.101 C236.08,217.108 236.08,217.114 236.08,217.12 C236.08,217.126 236.08,217.133 236.08,217.139 C236.08,217.145 236.08,217.152 236.08,217.158 C236.08,217.164 236.08,217.171 236.08,217.177 C236.08,217.183 236.08,217.19 236.08,217.196 C236.08,217.202 236.08,217.209 236.08,217.215 C236.08,217.221 236.08,217.228 236.08,217.234 C236.08,217.24 236.08,217.247 236.08,217.253 C236.08,217.259 236.08,217.266 236.08,217.272 C236.08,217.278 236.08,217.285 236.08,217.291 C236.08,217.298 236.08,217.304 236.08,217.31 C236.08,217.317 236.08,217.323 236.08,217.33 C236.08,217.336 236.08,217.342 236.08,217.349 C236.08,217.355 236.08,217.361 236.08,217.368 C236.08,217.374 236.08,217.381 236.08,217.387 C236.08,217.394 236.08,217.4 236.08,217.406 C236.08,217.413 236.08,217.419 236.08,217.426 C236.08,217.432 236.08,217.439 236.08,217.445 C236.08,217.451 236.08,217.458 236.08,217.464 C236.08,217.471 236.08,217.477 236.08,217.484 C236.08,217.49 236.08,217.497 236.08,217.503 C236.08,217.51 236.08,217.516 236.08,217.522 C236.08,217.529 236.08,217.535 236.08,217.542 C236.08,217.548 236.08,217.555 236.08,217.561 C236.08,217.568 236.08,217.574 236.08,217.581 C236.08,217.587 236.08,217.594 236.08,217.6 C236.08,217.607 236.08,217.613 236.08,217.62 C236.08,217.626 236.08,217.633 236.08,217.64 C236.08,217.646 236.08,217.653 236.08,217.659 C236.08,217.666 236.08,217.672 236.08,217.679 C236.08,217.685 236.08,217.692 236.08,217.698 C236.08,217.705 236.08,217.712 236.08,217.718 C236.08,217.725 236.08,217.731 236.08,217.738 C236.08,217.744 236.08,217.751 236.08,217.758 C236.08,217.764 236.08,217.771 236.08,217.777 C236.08,217.784 236.08,217.791 236.08,217.797 C236.08,217.804 236.08,217.81 236.08,217.817 C236.08,217.824 236.08,217.83 236.08,217.837 C236.08,217.844 236.08,217.85 236.08,217.857 C236.08,217.863 236.08,217.87 236.08,217.877 C236.08,217.883 236.08,217.89 236.08,217.897 C236.08,217.903 236.08,217.91 236.08,217.917 C236.08,217.923 236.08,217.93 236.08,217.937 C236.08,217.943 236.08,217.95 236.08,217.957 C236.08,217.963 236.08,217.97 236.08,217.977 C236.08,217.983 236.08,217.99 236.08,217.997 C236.08,218.004 236.08,218.01 236.08,218.017 C236.08,218.024 236.08,218.03 236.08,218.037 C236.08,218.044 236.08,218.051 236.08,218.057 C236.08,218.064 236.08,218.071 236.08,218.078 C236.08,218.084 236.08,218.091 236.08,218.098 C236.08,218.105 236.08,218.111 236.08,218.118 C236.08,218.125 236.08,218.132 236.08,218.138 C236.08,218.145 236.08,218.152 236.08,218.159 C236.08,218.166 236.08,218.172 236.08,218.179 C236.08,218.186 236.08,218.193 236.08,218.2 C236.08,218.206 236.08,218.213 236.08,218.22 C236.08,218.227 236.08,218.234 236.08,218.24 C236.08,218.247 236.08,218.254 236.08,218.261 C236.08,218.268 236.08,218.275 236.08,218.282 C236.08,218.288 236.08,218.295 236.08,218.302 C236.08,218.309 236.08,218.316 236.08,218.323 C236.08,218.33 236.08,218.336 236.08,218.343 C236.08,218.35 236.08,218.357 236.08,218.364 C236.08,218.371 236.08,218.378 236.08,218.385 C236.08,218.392 236.08,218.399 236.08,218.405 C236.08,218.412 236.08,218.419 236.08,218.426 C236.08,218.433 236.08,218.44 236.08,218.447 C236.08,218.454 236.08,218.461 236.08,218.468 C236.08,218.475 236.08,218.482 236.08,218.489 C236.08,218.496 236.08,218.503 236.08,218.51 C236.08,218.517 236.08,218.524 236.08,218.531 C236.08,218.538 236.08,218.545 236.08,218.551 C236.08,218.558 236.08,218.565 236.08,218.573 C236.08,218.58 236.08,218.587 236.08,218.594 C236.08,218.601 236.08,218.608 236.08,218.615 C236.08,218.622 236.08,218.629 236.08,218.636 C236.08,218.643 236.08,218.65 236.08,218.657 C236.08,218.664 236.08,218.671 236.08,218.678 C236.08,218.685 236.08,218.692 236.08,218.699 C236.08,218.706 236.08,218.713 236.08,218.721 C236.08,218.728 236.08,218.735 236.08,218.742 C236.08,218.749 236.08,218.756 236.08,218.763 C236.08,218.77 236.08,218.777 236.08,218.784 C236.08,218.792 236.08,218.799 236.08,218.806 C236.08,218.813 236.08,218.82 236.08,218.827 C236.08,218.834 236.08,218.842 236.08,218.849 C236.08,218.856 236.08,218.863 236.08,218.87 C236.08,218.877 236.08,218.885 236.08,218.892 C236.08,218.899 236.08,218.906 236.08,218.913 C236.08,218.921 236.08,218.928 236.08,218.935 C236.08,218.942 236.08,218.949 236.08,218.957 C236.08,218.964 236.08,218.971 236.08,218.978 C236.08,218.986 236.08,218.993 236.08,219 L238.08,219 C238.08,218.993 238.08,218.986 238.08,218.978 C238.08,218.971 238.08,218.964 238.08,218.957 C238.08,218.949 238.08,218.942 238.08,218.935 C238.08,218.928 238.08,218.921 238.08,218.913 C238.08,218.906 238.08,218.899 238.08,218.892 C238.08,218.885 238.08,218.877 238.08,218.87 C238.08,218.863 238.08,218.856 238.08,218.849 C238.08,218.842 238.08,218.834 238.08,218.827 C238.08,218.82 238.08,218.813 238.08,218.806 C238.08,218.799 238.08,218.792 238.08,218.784 C238.08,218.777 238.08,218.77 238.08,218.763 C238.08,218.756 238.08,218.749 238.08,218.742 C238.08,218.735 238.08,218.728 238.08,218.721 C238.08,218.713 238.08,218.706 238.08,218.699 C238.08,218.692 238.08,218.685 238.08,218.678 C238.08,218.671 238.08,218.664 238.08,218.657 C238.08,218.65 238.08,218.643 238.08,218.636 C238.08,218.629 238.08,218.622 238.08,218.615 C238.08,218.608 238.08,218.601 238.08,218.594 C238.08,218.587 238.08,218.58 238.08,218.573 C238.08,218.565 238.08,218.558 238.08,218.551 C238.08,218.545 238.08,218.538 238.08,218.531 C238.08,218.524 238.08,218.517 238.08,218.51 C238.08,218.503 238.08,218.496 238.08,218.489 C238.08,218.482 238.08,218.475 238.08,218.468 C238.08,218.461 238.08,218.454 238.08,218.447 C238.08,218.44 238.08,218.433 238.08,218.426 C238.08,218.419 238.08,218.412 238.08,218.405 C238.08,218.399 238.08,218.392 238.08,218.385 C238.08,218.378 238.08,218.371 238.08,218.364 C238.08,218.357 238.08,218.35 238.08,218.343 C238.08,218.336 238.08,218.33 238.08,218.323 C238.08,218.316 238.08,218.309 238.08,218.302 C238.08,218.295 238.08,218.288 238.08,218.282 C238.08,218.275 238.08,218.268 238.08,218.261 C238.08,218.254 238.08,218.247 238.08,218.24 C238.08,218.234 238.08,218.227 238.08,218.22 C238.08,218.213 238.08,218.206 238.08,218.2 C238.08,218.193 238.08,218.186 238.08,218.179 C238.08,218.172 238.08,218.166 238.08,218.159 C238.08,218.152 238.08,218.145 238.08,218.138 C238.08,218.132 238.08,218.125 238.08,218.118 C238.08,218.111 238.08,218.105 238.08,218.098 C238.08,218.091 238.08,218.084 238.08,218.078 C238.08,218.071 238.08,218.064 238.08,218.057 C238.08,218.051 238.08,218.044 238.08,218.037 C238.08,218.03 238.08,218.024 238.08,218.017 C238.08,218.01 238.08,218.004 238.08,217.997 C238.08,217.99 238.08,217.983 238.08,217.977 C238.08,217.97 238.08,217.963 238.08,217.957 C238.08,217.95 238.08,217.943 238.08,217.937 C238.08,217.93 238.08,217.923 238.08,217.917 C238.08,217.91 238.08,217.903 238.08,217.897 C238.08,217.89 238.08,217.883 238.08,217.877 C238.08,217.87 238.08,217.863 238.08,217.857 C238.08,217.85 238.08,217.844 238.08,217.837 C238.08,217.83 238.08,217.824 238.08,217.817 C238.08,217.81 238.08,217.804 238.08,217.797 C238.08,217.791 238.08,217.784 238.08,217.777 C238.08,217.771 238.08,217.764 238.08,217.758 C238.08,217.751 238.08,217.744 238.08,217.738 C238.08,217.731 238.08,217.725 238.08,217.718 C238.08,217.712 238.08,217.705 238.08,217.698 C238.08,217.692 238.08,217.685 238.08,217.679 C238.08,217.672 238.08,217.666 238.08,217.659 C238.08,217.653 238.08,217.646 238.08,217.64 C238.08,217.633 238.08,217.626 238.08,217.62 C238.08,217.613 238.08,217.607 238.08,217.6 C238.08,217.594 238.08,217.587 238.08,217.581 C238.08,217.574 238.08,217.568 238.08,217.561 C238.08,217.555 238.08,217.548 238.08,217.542 C238.08,217.535 238.08,217.529 238.08,217.522 C238.08,217.516 238.08,217.51 238.08,217.503 C238.08,217.497 238.08,217.49 238.08,217.484 C238.08,217.477 238.08,217.471 238.08,217.464 C238.08,217.458 238.08,217.451 238.08,217.445 C238.08,217.439 238.08,217.432 238.08,217.426 C238.08,217.419 238.08,217.413 238.08,217.406 C238.08,217.4 238.08,217.394 238.08,217.387 C238.08,217.381 238.08,217.374 238.08,217.368 C238.08,217.361 238.08,217.355 238.08,217.349 C238.08,217.342 238.08,217.336 238.08,217.33 C238.08,217.323 238.08,217.317 238.08,217.31 C238.08,217.304 238.08,217.298 238.08,217.291 C238.08,217.285 238.08,217.278 238.08,217.272 C238.08,217.266 238.08,217.259 238.08,217.253 C238.08,217.247 238.08,217.24 238.08,217.234 C238.08,217.228 238.08,217.221 238.08,217.215 C238.08,217.209 238.08,217.202 238.08,217.196 C238.08,217.19 238.08,217.183 238.08,217.177 C238.08,217.171 238.08,217.164 238.08,217.158 C238.08,217.152 238.08,217.145 238.08,217.139 C238.08,217.133 238.08,217.126 238.08,217.12 C238.08,217.114 238.08,217.108 238.08,217.101 C238.08,217.095 238.08,217.089 238.08,217.082 C238.08,217.076 238.08,217.07 238.08,217.064 C238.08,217.057 238.08,217.051 238.08,217.045 C238.08,217.038 238.08,217.032 238.08,217.026 C238.08,217.02 238.08,217.013 238.08,217.007 C238.08,217.001 238.08,216.995 238.08,216.988 C238.08,216.982 238.08,216.976 238.08,216.97 C238.08,216.963 238.08,216.957 238.08,216.951 C238.08,216.945 238.08,216.939 238.08,216.932 C238.08,216.926 238.08,216.92 238.08,216.914 C238.08,216.907 238.08,216.901 238.08,216.895 C238.08,216.889 238.08,216.883 238.08,216.876 C238.08,216.87 238.08,216.864 238.08,216.858 C238.08,216.852 238.08,216.845 238.08,216.839 C238.08,216.833 238.08,216.827 238.08,216.821 C238.08,216.815 238.08,216.808 238.08,216.802 C238.08,216.796 238.08,216.79 238.08,216.784 C238.08,216.778 238.08,216.771 238.08,216.765 C238.08,216.759 238.08,216.753 238.08,216.747 C238.08,216.741 238.08,216.734 238.08,216.728 C238.08,216.722 238.08,216.716 238.08,216.71 C238.08,216.704 238.08,216.698 238.08,216.691 C238.08,216.685 238.08,216.679 238.08,216.673 C238.08,216.667 238.08,216.661 238.08,216.655 C238.08,216.649 238.08,216.642 238.08,216.636 C238.08,216.63 238.08,216.624 238.08,216.618 C238.08,216.612 238.08,216.606 238.08,216.6 C238.08,216.594 238.08,216.588 238.08,216.581 C238.08,216.575 238.08,216.569 238.08,216.563 C238.08,216.557 238.08,216.551 238.08,216.545 C238.08,216.539 238.08,216.533 238.08,216.527 C238.08,216.521 238.08,216.515 238.08,216.509 C238.08,216.502 238.08,216.496 238.08,216.49 C238.08,216.484 238.08,216.478 238.08,216.472 C238.08,216.466 238.08,216.46 238.08,216.454 C238.08,216.448 238.08,216.442 238.08,216.436 C238.08,216.43 238.08,216.424 238.08,216.418 C238.08,216.412 238.08,216.406 238.08,216.4 C238.08,216.394 238.08,216.388 238.08,216.382 C238.08,216.376 238.08,216.37 238.08,216.364 C238.08,216.358 238.08,216.352 238.08,216.346 C238.08,216.34 238.08,216.334 238.08,216.328 C238.08,216.322 238.08,216.316 238.08,216.31 C238.08,216.304 238.08,216.298 238.08,216.292 C238.08,216.286 238.08,216.28 238.08,216.274 C238.08,216.268 238.08,216.262 238.08,216.256 C238.08,216.25 238.08,216.244 238.08,216.238 C238.08,216.232 238.08,216.226 238.08,216.22 C238.08,216.214 238.08,216.208 238.08,216.202 C238.08,216.196 238.08,216.19 238.08,216.184 C238.08,216.178 238.08,216.172 238.08,216.166 C238.08,216.16 238.08,216.154 238.08,216.148 C238.08,216.142 238.08,216.136 238.08,216.13 C238.08,216.124 238.08,216.119 238.08,216.113 C238.08,216.107 238.08,216.101 238.08,216.095 C238.08,216.089 238.08,216.083 238.08,216.077 C238.08,216.071 238.08,216.065 238.08,216.059 C238.08,216.053 238.08,216.047 238.08,216.041 C238.08,216.036 238.08,216.03 238.08,216.024 C238.08,216.018 238.08,216.012 238.08,216.006 C238.08,216 238.08,215.994 238.08,215.988 C238.08,215.982 238.08,215.976 238.08,215.971 C238.08,215.965 238.08,215.959 238.08,215.953 C238.08,215.947 238.08,215.941 238.08,215.935 C238.08,215.929 238.08,215.923 238.08,215.918 C238.08,215.912 238.08,215.906 238.08,215.9 C238.08,215.894 238.08,215.888 238.08,215.882 C238.08,215.876 238.08,215.871 238.08,215.865 C238.08,215.859 238.08,215.853 238.08,215.847 C238.08,215.841 238.08,215.835 238.08,215.83 C238.08,215.824 238.08,215.818 238.08,215.812 C238.08,215.806 238.08,215.8 238.08,215.794 C238.08,215.789 238.08,215.783 238.08,215.777 C238.08,215.771 238.08,215.765 238.08,215.759 C238.08,215.753 238.08,215.748 238.08,215.742 C238.08,215.736 238.08,215.73 238.08,215.724 C238.08,215.718 238.08,215.713 238.08,215.707 C238.08,215.701 238.08,215.695 238.08,215.689 C238.08,215.683 238.08,215.678 238.08,215.672 C238.08,215.666 238.08,215.66 238.08,215.654 C238.08,215.649 238.08,215.643 238.08,215.637 C238.08,215.631 238.08,215.625 238.08,215.619 C238.08,215.614 238.08,215.608 238.08,215.602 C238.08,215.596 238.08,215.59 238.08,215.585 C238.08,215.579 238.08,215.573 238.08,215.567 C238.08,215.561 238.08,215.556 238.08,215.55 C238.08,215.544 238.08,215.538 238.08,215.532 C238.08,215.527 238.08,215.521 238.08,215.515 C238.08,215.509 238.08,215.504 238.08,215.498 C238.08,215.492 238.08,215.486 238.08,215.48 C238.08,215.475 238.08,215.469 238.08,215.463 C238.08,215.457 238.08,215.452 238.08,215.446 C238.08,215.44 238.08,215.434 238.08,215.428 C238.08,215.423 238.08,215.417 238.08,215.411 C238.08,215.405 238.08,215.4 238.08,215.394 C238.08,215.388 238.08,215.382 238.08,215.377 C238.08,215.371 238.08,215.365 238.08,215.359 C238.08,215.354 238.08,215.348 238.08,215.342 C238.08,215.336 238.08,215.33 238.08,215.325 C238.08,215.319 238.08,215.313 238.08,215.307 C238.08,215.302 238.08,215.296 238.08,215.29 C238.08,215.285 238.08,215.279 238.08,215.273 C238.08,215.267 238.08,215.262 238.08,215.256 C238.08,215.25 238.08,215.244 238.08,215.239 C238.08,215.233 238.08,215.227 238.08,215.221 C238.08,215.216 238.08,215.21 238.08,215.204 C238.08,215.198 238.08,215.193 238.08,215.187 C238.08,215.181 238.08,215.176 238.08,215.17 C238.08,215.164 238.08,215.158 238.08,215.153 C238.08,215.147 238.08,215.141 238.08,215.135 C238.08,215.13 238.08,215.124 238.08,215.118 C238.08,215.113 238.08,215.107 238.08,215.101 C238.08,215.095 238.08,215.09 238.08,215.084 C238.08,215.078 238.08,215.073 238.08,215.067 C238.08,215.061 238.08,215.055 238.08,215.05 C238.08,215.044 238.08,215.038 238.08,215.033 C238.08,215.027 238.08,215.021 238.08,215.016 C238.08,215.01 238.08,215.004 238.08,214.998 C238.08,214.993 238.08,214.987 238.08,214.981 C238.08,214.976 238.08,214.97 238.08,214.964 C238.08,214.959 238.08,214.953 238.08,214.947 C238.08,214.941 238.08,214.936 238.08,214.93 C238.08,214.924 238.08,214.919 238.08,214.913 C238.08,214.907 238.08,214.902 238.08,214.896 C238.08,214.89 238.08,214.885 238.08,214.879 C238.08,214.873 238.08,214.867 238.08,214.862 C238.08,214.856 238.08,214.85 238.08,214.845 C238.08,214.839 238.08,214.833 238.08,214.828 C238.08,214.822 238.08,214.816 238.08,214.811 C238.08,214.805 238.08,214.799 238.08,214.794 C238.08,214.788 238.08,214.782 238.08,214.777 C238.08,214.771 238.08,214.765 238.08,214.76 C238.08,214.754 238.08,214.748 238.08,214.743 C238.08,214.737 238.08,214.731 238.08,214.725 C238.08,214.72 238.08,214.714 238.08,214.708 C238.08,214.703 238.08,214.697 238.08,214.691 C238.08,214.686 238.08,214.68 238.08,214.674 C238.08,214.669 238.08,214.663 238.08,214.657 C238.08,214.652 238.08,214.646 238.08,214.64 C238.08,214.635 238.08,214.629 238.08,214.623 C238.08,214.618 238.08,214.612 238.08,214.606 C238.08,214.601 238.08,214.595 238.08,214.589 C238.08,214.584 238.08,214.578 238.08,214.572 C238.08,214.567 238.08,214.561 238.08,214.555 C238.08,214.55 238.08,214.544 238.08,214.538 C238.08,214.533 238.08,214.527 238.08,214.522 C238.08,214.516 238.08,214.51 238.08,214.505 C238.08,214.499 238.08,214.493 238.08,214.488 C238.08,214.482 238.08,214.476 238.08,214.471 C238.08,214.465 238.08,214.459 238.08,214.454 C238.08,214.448 238.08,214.442 238.08,214.437 C238.08,214.431 238.08,214.425 238.08,214.42 C238.08,214.414 238.08,214.408 238.08,214.403 C238.08,214.397 238.08,214.391 238.08,214.386 C238.08,214.38 238.08,214.374 238.08,214.369 C238.08,214.363 238.08,214.357 238.08,214.352 C238.08,214.346 238.08,214.34 238.08,214.335 C238.08,214.329 238.08,214.324 238.08,214.318 C238.08,214.312 238.08,214.307 238.08,214.301 C238.08,214.295 238.08,214.29 238.08,214.284 C238.08,214.278 238.08,214.273 238.08,214.267 C238.08,214.261 238.08,214.256 238.08,214.25 C238.08,214.244 238.08,214.239 238.08,214.233 C238.08,214.227 238.08,214.222 238.08,214.216 C238.08,214.21 238.08,214.205 238.08,214.199 C238.08,214.193 238.08,214.188 238.08,214.182 C238.08,214.176 238.08,214.171 238.08,214.165 C238.08,214.16 238.08,214.154 238.08,214.148 C238.08,214.143 238.08,214.137 238.08,214.131 C238.08,214.126 238.08,214.12 238.08,214.114 C238.08,214.109 238.08,214.103 238.08,214.097 C238.08,214.092 238.08,214.086 238.08,214.08 C238.08,214.075 238.08,214.069 238.08,214.063 C238.08,214.058 238.08,214.052 238.08,214.046 C238.08,214.041 238.08,214.035 238.08,214.029 C238.08,214.024 238.08,214.018 238.08,214.012 C238.08,214.007 238.08,214.001 238.08,213.995 C238.08,213.99 238.08,213.984 238.08,213.978 C238.08,213.973 238.08,213.967 238.08,213.962 C238.08,213.956 238.08,213.95 238.08,213.945 C238.08,213.939 238.08,213.933 238.08,213.928 C238.08,213.922 238.08,213.916 238.08,213.911 C238.08,213.905 238.08,213.899 238.08,213.894 C238.08,213.888 238.08,213.882 238.08,213.877 C238.08,213.871 238.08,213.865 238.08,213.86 C238.08,213.854 238.08,213.848 238.08,213.843 C238.08,213.837 238.08,213.831 238.08,213.826 C238.08,213.82 238.08,213.814 238.08,213.809 C238.08,213.803 238.08,213.797 238.08,213.792 C238.08,213.786 238.08,213.78 238.08,213.775 C238.08,213.769 238.08,213.763 238.08,213.757 C238.08,213.752 238.08,213.746 238.08,213.74 C238.08,213.735 238.08,213.729 238.08,213.723 C238.08,213.718 238.08,213.712 238.08,213.706 C238.08,213.701 238.08,213.695 238.08,213.689 C238.08,213.684 238.08,213.678 238.08,213.672 C238.08,213.667 238.08,213.661 238.08,213.655 C238.08,213.65 238.08,213.644 238.08,213.638 C238.08,213.633 238.08,213.627 238.08,213.621 C238.08,213.615 238.08,213.61 238.08,213.604 C238.08,213.598 238.08,213.593 238.08,213.587 C238.08,213.581 238.08,213.576 238.08,213.57 C238.08,213.564 238.08,213.559 238.08,213.553 C238.08,213.547 238.08,213.541 238.08,213.536 C238.08,213.53 238.08,213.524 238.08,213.519 C238.08,213.513 238.08,213.507 238.08,213.502 C238.08,213.496 238.08,213.49 238.08,213.484 C238.08,213.479 238.08,213.473 238.08,213.467 C238.08,213.462 238.08,213.456 238.08,213.45 C238.08,213.445 238.08,213.439 238.08,213.433 C238.08,213.427 238.08,213.422 238.08,213.416 C238.08,213.41 238.08,213.405 238.08,213.399 C238.08,213.393 238.08,213.387 238.08,213.382 C238.08,213.376 238.08,213.37 238.08,213.365 C238.08,213.359 238.08,213.353 238.08,213.347 C238.08,213.342 238.08,213.336 238.08,213.33 C238.08,213.324 238.08,213.319 238.08,213.313 C238.08,213.307 238.08,213.302 238.08,213.296 C238.08,213.29 238.08,213.284 238.08,213.279 C238.08,213.273 238.08,213.267 238.08,213.261 C238.08,213.256 238.08,213.25 238.08,213.244 C238.08,213.238 238.08,213.233 238.08,213.227 C238.08,213.221 238.08,213.215 238.08,213.21 C238.08,213.204 238.08,213.198 238.08,213.193 C238.08,213.187 238.08,213.181 238.08,213.175 C238.08,213.17 238.08,213.164 238.08,213.158 C238.08,213.152 238.08,213.146 238.08,213.141 C238.08,213.135 238.08,213.129 238.08,213.123 C238.08,213.118 238.08,213.112 238.08,213.106 C238.08,213.1 238.08,213.095 238.08,213.089 C238.08,213.083 238.08,213.077 238.08,213.072 C238.08,213.066 238.08,213.06 238.08,213.054 C238.08,213.048 238.08,213.043 238.08,213.037 C238.08,213.031 238.08,213.025 238.08,213.02 C238.08,213.014 238.08,213.008 238.08,213.002 C238.08,212.996 238.08,212.991 238.08,212.985 C238.08,212.979 238.08,212.973 238.08,212.968 C238.08,212.962 238.08,212.956 238.08,212.95 C238.08,212.944 238.08,212.939 238.08,212.933 C238.08,212.927 238.08,212.921 238.08,212.915 C238.08,212.91 238.08,212.904 238.08,212.898 C238.08,212.892 238.08,212.886 238.08,212.881 C238.08,212.875 238.08,212.869 238.08,212.863 C238.08,212.857 238.08,212.851 238.08,212.846 C238.08,212.84 238.08,212.834 238.08,212.828 C238.08,212.822 238.08,212.817 238.08,212.811 C238.08,212.805 238.08,212.799 238.08,212.793 C238.08,212.787 238.08,212.782 238.08,212.776 C238.08,212.77 238.08,212.764 238.08,212.758 C238.08,212.752 238.08,212.747 238.08,212.741 C238.08,212.735 238.08,212.729 238.08,212.723 C238.08,212.717 238.08,212.711 238.08,212.706 C238.08,212.7 238.08,212.694 238.08,212.688 C238.08,212.682 238.08,212.676 238.08,212.67 C238.08,212.665 238.08,212.659 238.08,212.653 C238.08,212.647 238.08,212.641 238.08,212.635 C238.08,212.629 238.08,212.624 238.08,212.618 C238.08,212.612 238.08,212.606 238.08,212.6 C238.08,212.594 238.08,212.588 238.08,212.582 C238.08,212.577 238.08,212.571 238.08,212.565 C238.08,212.559 238.08,212.553 238.08,212.547 C238.08,212.541 238.08,212.535 238.08,212.529 C238.08,212.524 238.08,212.518 238.08,212.512 C238.08,212.506 238.08,212.5 238.08,212.494 C238.08,212.488 238.08,212.482 238.08,212.476 C238.08,212.47 238.08,212.464 238.08,212.459 C238.08,212.453 238.08,212.447 238.08,212.441 C238.08,212.435 238.08,212.429 238.08,212.423 C238.08,212.417 238.08,212.411 238.08,212.405 C238.08,212.399 238.08,212.393 238.08,212.387 C238.08,212.381 238.08,212.376 238.08,212.37 C238.08,212.364 238.08,212.358 238.08,212.352 C238.08,212.346 238.08,212.34 238.08,212.334 C238.08,212.328 238.08,212.322 238.08,212.316 C238.08,212.31 238.08,212.304 238.08,212.298 C238.08,212.292 238.08,212.286 238.08,212.28 C238.08,212.274 238.08,212.268 238.08,212.262 C238.08,212.256 238.08,212.25 238.08,212.244 C238.08,212.238 238.08,212.232 238.08,212.226 C238.08,212.22 238.08,212.214 238.08,212.208 C238.08,212.202 238.08,212.196 238.08,212.19 C238.08,212.184 238.08,212.178 238.08,212.172 C238.08,212.166 238.08,212.16 238.08,212.154 C238.08,212.148 238.08,212.142 238.08,212.136 C238.08,212.13 238.08,212.124 238.08,212.118 C238.08,212.112 238.08,212.106 238.08,212.1 C238.08,212.094 238.08,212.088 238.08,212.082 C238.08,212.076 238.08,212.07 238.08,212.064 C238.08,212.058 238.08,212.052 238.08,212.046 C238.08,212.04 238.08,212.034 238.08,212.028 C238.08,212.022 238.08,212.016 238.08,212.01 C238.08,212.004 238.08,211.998 238.08,211.991 C238.08,211.985 238.08,211.979 238.08,211.973 C238.08,211.967 238.08,211.961 238.08,211.955 C238.08,211.949 238.08,211.943 238.08,211.937 C238.08,211.931 238.08,211.925 238.08,211.919 C238.08,211.912 238.08,211.906 238.08,211.9 C238.08,211.894 238.08,211.888 238.08,211.882 C238.08,211.876 238.08,211.87 238.08,211.864 C238.08,211.858 238.08,211.851 238.08,211.845 C238.08,211.839 238.08,211.833 238.08,211.827 C238.08,211.821 238.08,211.815 238.08,211.809 C238.08,211.802 238.08,211.796 238.08,211.79 C238.08,211.784 238.08,211.778 238.08,211.772 C238.08,211.766 238.08,211.759 238.08,211.753 C238.08,211.747 238.08,211.741 238.08,211.735 C238.08,211.729 238.08,211.722 238.08,211.716 C238.08,211.71 238.08,211.704 238.08,211.698 C238.08,211.692 238.08,211.685 238.08,211.679 C238.08,211.673 238.08,211.667 238.08,211.661 C238.08,211.655 238.08,211.648 238.08,211.642 C238.08,211.636 238.08,211.63 238.08,211.624 C238.08,211.617 238.08,211.611 238.08,211.605 C238.08,211.599 238.08,211.593 238.08,211.586 C238.08,211.58 238.08,211.574 238.08,211.568 C238.08,211.561 238.08,211.555 238.08,211.549 C238.08,211.543 238.08,211.537 238.08,211.53 C238.08,211.524 238.08,211.518 238.08,211.512 C238.08,211.505 238.08,211.499 238.08,211.493 C238.08,211.487 238.08,211.48 238.08,211.474 C238.08,211.468 238.08,211.462 238.08,211.455 C238.08,211.449 238.08,211.443 238.08,211.436 C238.08,211.43 238.08,211.424 238.08,211.418 C238.08,211.411 238.08,211.405 238.08,211.399 C238.08,211.392 238.08,211.386 238.08,211.38 C238.08,211.374 238.08,211.367 238.08,211.361 C238.08,211.355 238.08,211.348 238.08,211.342 C238.08,211.336 238.08,211.329 238.08,211.323 C238.08,211.317 238.08,211.31 238.08,211.304 C238.08,211.298 238.08,211.291 238.08,211.285 C238.08,211.279 238.08,211.272 238.08,211.266 C238.08,211.26 238.08,211.253 238.08,211.247 C238.08,211.241 238.08,211.234 238.08,211.228 C238.08,211.222 238.08,211.215 238.08,211.209 C238.08,211.202 238.08,211.196 238.08,211.19 C238.08,211.183 238.08,211.177 238.08,211.17 C238.08,211.164 238.08,211.158 238.08,211.151 C238.08,211.145 238.08,211.139 238.08,211.132 C238.08,211.126 238.08,211.119 238.08,211.113 C238.08,211.106 238.08,211.1 238.08,211.094 C238.08,211.087 238.08,211.081 238.08,211.074 C238.08,211.068 238.08,211.061 238.08,211.055 C238.08,211.049 238.08,211.042 238.08,211.036 C238.08,211.029 238.08,211.023 238.08,211.016 C238.08,211.01 238.08,211.003 238.08,210.997 C238.08,210.99 238.08,210.984 238.08,210.978 C238.08,210.971 238.08,210.965 238.08,210.958 C238.08,210.952 238.08,210.945 238.08,210.939 C238.08,210.932 238.08,210.926 238.08,210.919 C238.08,210.913 238.08,210.906 238.08,210.9 C238.08,210.893 238.08,210.887 238.08,210.88 C238.08,210.874 238.08,210.867 238.08,210.86 C238.08,210.854 238.08,210.847 238.08,210.841 C238.08,210.834 238.08,210.828 238.08,210.821 C238.08,210.815 238.08,210.808 238.08,210.802 C238.08,210.795 238.08,210.788 238.08,210.782 C238.08,210.775 238.08,210.769 238.08,210.762 C238.08,210.756 238.08,210.749 238.08,210.742 C238.08,210.736 238.08,210.729 238.08,210.723 C238.08,210.716 238.08,210.709 238.08,210.703 C238.08,210.696 238.08,210.69 238.08,210.683 C238.08,210.676 238.08,210.67 238.08,210.663 C238.08,210.656 238.08,210.65 238.08,210.643 C238.08,210.637 238.08,210.63 238.08,210.623 C238.08,210.617 238.08,210.61 238.08,210.603 C238.08,210.597 238.08,210.59 238.08,210.583 C238.08,210.577 238.08,210.57 238.08,210.563 C238.08,210.557 238.08,210.55 238.08,210.543 C238.08,210.537 238.08,210.53 238.08,210.523 C238.08,210.517 238.08,210.51 238.08,210.503 C238.08,210.496 238.08,210.49 238.08,210.483 C238.08,210.476 238.08,210.47 238.08,210.463 C238.08,210.456 238.08,210.449 238.08,210.443 C238.08,210.436 238.08,210.429 238.08,210.422 C238.08,210.416 238.08,210.409 238.08,210.402 C238.08,210.395 238.08,210.389 238.08,210.382 C238.08,210.375 238.08,210.368 238.08,210.362 C238.08,210.355 238.08,210.348 238.08,210.341 C238.08,210.334 238.08,210.328 238.08,210.321 C238.08,210.314 238.08,210.307 238.08,210.3 C238.08,210.294 238.08,210.287 238.08,210.28 C238.08,210.273 238.08,210.266 238.08,210.26 C238.08,210.253 238.08,210.246 238.08,210.239 C238.08,210.232 238.08,210.225 238.08,210.218 C238.08,210.212 238.08,210.205 238.08,210.198 C238.08,210.191 238.08,210.184 238.08,210.177 C238.08,210.17 238.08,210.164 238.08,210.157 C238.08,210.15 238.08,210.143 238.08,210.136 C238.08,210.129 238.08,210.122 238.08,210.115 C238.08,210.108 238.08,210.101 238.08,210.095 C238.08,210.088 238.08,210.081 238.08,210.074 C238.08,210.067 238.08,210.06 238.08,210.053 C238.08,210.046 238.08,210.039 238.08,210.032 C238.08,210.025 238.08,210.018 238.08,210.011 C238.08,210.004 238.08,209.997 238.08,209.99 C238.08,209.983 238.08,209.976 238.08,209.969 C238.08,209.962 238.08,209.955 238.08,209.949 C238.08,209.942 238.08,209.935 238.08,209.927 C238.08,209.92 238.08,209.913 238.08,209.906 C238.08,209.899 238.08,209.892 238.08,209.885 C238.08,209.878 238.08,209.871 238.08,209.864 C238.08,209.857 238.08,209.85 238.08,209.843 C238.08,209.836 238.08,209.829 238.08,209.822 C238.08,209.815 238.08,209.808 238.08,209.801 C238.08,209.794 238.08,209.787 238.08,209.779 C238.08,209.772 238.08,209.765 238.08,209.758 C238.08,209.751 238.08,209.744 238.08,209.737 C238.08,209.73 238.08,209.723 238.08,209.716 C238.08,209.708 238.08,209.701 238.08,209.694 C238.08,209.687 238.08,209.68 238.08,209.673 C238.08,209.666 238.08,209.658 238.08,209.651 C238.08,209.644 238.08,209.637 238.08,209.63 C238.08,209.623 238.08,209.615 238.08,209.608 C238.08,209.601 238.08,209.594 238.08,209.587 C238.08,209.579 238.08,209.572 238.08,209.565 C238.08,209.558 238.08,209.551 238.08,209.543 C238.08,209.536 238.08,209.529 238.08,209.522 C238.08,209.514 238.08,209.507 238.08,209.5 L236.08,209.5 Z M236.08,229.5 L236.08,237.5 L238.08,237.5 L238.08,229.5 L236.08,229.5 Z" id="Shape"></path>
        </g>
    </g>
</svg>
